<?xml version="1.0" encoding="UTF-8" standalone="no"?>
<svg width="211px" height="100px" viewBox="0 0 211 100" version="1.1" xmlns="http://www.w3.org/2000/svg" xmlns:xlink="http://www.w3.org/1999/xlink" xmlns:sketch="http://www.bohemiancoding.com/sketch/ns">
    <!-- Generator: Sketch 3.3.2 (12043) - http://www.bohemiancoding.com/sketch -->
    <title>logo-godfathers</title>
    <desc>Created with Sketch.</desc>
    <defs></defs>
    <g id="Page-1" stroke="none" stroke-width="1" fill="none" fill-rule="evenodd" sketch:type="MSPage">
        <g id="godfathers-v1" sketch:type="MSArtboardGroup" transform="translate(-614.000000, -72.000000)">
            <g id="hero" sketch:type="MSLayerGroup">
                <g id="logo-godfathers-+-ZERO-FADES" transform="translate(502.000000, 72.000000)" sketch:type="MSShapeGroup">
                    <g id="logo-godfathers" transform="translate(112.000000, 0.000000)">
                        <path d="M162.22952,30.4991379 L162.16891,30.5094828 C153.002983,32.8422414 142.037812,32.6663793 137.587324,26.9939655 C143.199788,20.0939655 151.345739,13.0974138 162.395763,10.037069 C166.835861,8.7887931 170.889788,8.17844828 174.33069,8.51637931 C174.741105,9.14224138 175.04069,9.85431034 175.23291,10.5974138 C175.643324,12.1939655 175.132471,13.2939655 174.692617,13.9508621 C174.564471,14.1681034 174.278739,14.4818966 174.351471,14.5215517 C174.493471,14.6077586 174.753227,14.4215517 175.025105,14.0525862 C175.419934,13.4612069 176.086641,12.2594828 175.632934,10.4922414 C175.473617,9.86465517 175.167105,9.15258621 174.893495,8.55603448 C178.637446,9.12327586 181.543251,10.9301724 182.29308,14.325 C183.867202,21.1543103 172.877788,27.7818966 162.22952,30.4991379 M136.776885,25.7405172 C136.52752,25.2612069 136.24352,24.6043103 136.066885,23.9181034 C133.753324,15.8801724 143.255202,7.50086207 154.02469,4.75775862 C161.869324,2.75775862 170.661202,3.49568966 174.08652,8.03189655 C170.656007,7.74913793 166.546666,8.375 162.265885,9.52672414 C151.541422,12.4405172 143.248276,18.6232759 136.776885,25.7405172 M125.971032,59.9043103 C125.345885,60.5508621 124.590861,61.1698276 123.47391,61.5732759 C122.743129,61.8232759 122.143959,61.8543103 121.967324,61.412931 C121.71969,60.6853448 122.789885,59.862931 124.717276,58.8267241 C125.574471,58.3612069 127.391032,57.3508621 127.993666,56.8422414 C127.453373,58.0681034 126.783202,59.0353448 125.971032,59.9043103 M96.2809098,65.4698276 C95.1016171,67.2887931 93.2469585,69.0974138 92.1559829,69.3801724 C91.7576902,69.4732759 91.4252024,69.3801724 91.2676171,68.9956897 C90.9628366,68.2784483 91.5533488,66.5543103 93.3162268,63.6715517 C94.8505195,61.0956897 96.516422,59.0284483 97.6610805,58.7353448 C98.2896902,58.5732759 98.8230561,58.7456897 98.9581293,59.5025862 C99.1330317,60.4284483 97.7009098,63.4025862 96.2809098,65.4698276 M182.793544,14.1336207 C181.958861,10.4008621 178.845251,8.51637931 174.703007,8.05603448 C171.518398,2.79396552 163.322227,1.29396552 153.700861,3.74741379 C142.822276,6.52155172 133.195715,15.5974138 135.56469,24.1043103 C135.753446,24.8474138 136.065154,25.5594828 136.409763,26.2008621 C134.757715,28.0801724 133.233812,29.9836207 131.836324,31.9181034 C127.784129,37.5094828 124.6913,43.5215517 122.97691,47.0577586 C121.967324,49.0767241 120.44169,52.6267241 119.903129,53.8560345 C118.862373,55.2767241 117.769666,56.9543103 117.056202,57.9836207 C116.974812,58.1198276 116.924593,58.2267241 116.889959,58.3181034 C116.380837,59.0784483 115.856129,59.7956897 114.948715,60.9543103 C114.224861,61.9284483 113.357276,62.8163793 112.811788,63.3181034 C112.269763,63.8267241 111.885324,63.9784483 111.613446,63.8681034 C111.338105,63.7560345 111.235934,63.3594828 111.395251,62.7732759 C111.532056,62.1301724 111.968446,60.9853448 112.649007,59.5939655 C113.528715,57.7922414 114.595446,56.2474138 114.403227,55.5025862 L114.387641,55.4491379 C114.120959,54.4181034 112.449861,54.7853448 110.830715,55.1353448 C110.072227,55.2698276 109.798617,54.912931 110.335446,53.9267241 C110.593471,53.4922414 110.778763,53.262931 111.106056,52.8784483 C110.962324,52.5456897 110.385666,52.4543103 109.928495,52.5663793 C109.014154,52.8060345 108.312812,53.4077586 108.001105,54.0956897 C107.604544,54.9232759 107.866032,55.7112069 108.468666,55.9232759 C108.144837,56.5525862 107.585495,57.4818966 106.977666,58.4284483 C106.284983,59.5198276 105.895349,60.1060345 105.448568,60.7818966 C105.420861,60.8232759 105.391422,60.8663793 105.360251,60.9077586 C104.875373,61.6422414 104.165373,62.6646552 103.211202,63.9439655 C102.482154,64.925 101.586861,65.9387931 101.088129,66.3698276 C100.689837,66.7163793 100.17552,67.087069 99.8274463,66.9353448 C99.5590317,66.8163793 99.4378122,66.362931 99.6646659,65.5818966 C99.9452024,64.5336207 100.442202,63.3715517 100.949593,62.2715517 C101.772154,60.4836207 102.665715,58.7353448 103.190422,57.6905172 C103.586983,56.8663793 103.40169,56.6112069 102.212007,56.9732759 C101.294202,57.2060345 100.511471,58.1956897 99.5053488,59.9681034 C99.598861,58.912931 98.9338854,57.987069 97.7442024,58.1094828 C95.7683244,58.2474138 92.8521293,60.4491379 91.3178366,62.2974138 C89.037178,65.0663793 88.4051049,67.3525862 88.5852024,68.7663793 C88.8986415,70.6939655 90.2736171,70.825 91.5204463,70.4508621 C93.6643,69.7836207 95.8185439,67.2284483 96.9701293,65.5336207 L97.0411293,65.5818966 C96.6861293,66.3387931 96.545861,67.2215517 96.7657878,67.837069 C96.9995683,68.5043103 97.6489585,68.8887931 98.7364707,68.6112069 C100.625763,68.1267241 102.16352,66.2784483 103.074398,65.0767241 C103.941983,63.9439655 105.008715,62.3922414 105.576715,61.5198276 C105.687544,61.3577586 105.775861,61.2163793 105.853788,61.0887931 C106.274593,60.4491379 106.743885,59.7318966 107.369032,58.7525862 C108.063446,57.6646552 108.660885,56.6646552 108.986446,56.0353448 C109.303349,56.075 109.76052,55.9577586 110.32852,55.812931 C111.764105,55.4491379 112.810056,54.9974138 112.739056,55.6801724 C112.669788,56.125 110.891324,58.2198276 109.8523,59.8836207 C108.903324,61.3991379 107.879885,63.362931 108.1483,64.625 C108.309349,65.5008621 109.100739,65.9681034 110.302544,65.662931 C112.191837,65.1801724 113.847349,63.3008621 114.810178,62.0784483 C115.965227,60.6318966 116.848398,59.3181034 117.376568,58.5094828 C117.542812,58.2267241 117.709056,57.9681034 117.802568,57.775 C118.1593,57.237069 118.60608,56.5698276 119.0823,55.8939655 L119.139446,55.8767241 C118.699593,56.775 118.375763,57.6508621 118.050202,58.5232759 C117.442373,60.1974138 116.907276,61.6646552 116.685617,62.937069 C116.559202,63.6422414 116.592105,63.9956897 117.719446,63.6456897 C118.334202,63.4301724 118.834666,62.9991379 119.177544,62.4232759 C120.794959,59.7043103 122.031398,57.6301724 124.054032,55.0474138 C125.704349,52.9267241 127.342544,51.4767241 128.374641,51.2146552 C129.349593,50.9663793 129.455227,52.087069 129.384227,52.775 C129.302837,53.6439655 128.700202,55.3198276 128.288056,56.0956897 C127.371983,56.8163793 125.716471,57.725 124.220276,58.5336207 C122.18552,59.6543103 120.826129,60.5508621 121.04952,61.6439655 C121.297154,62.6146552 122.376007,62.5232759 123.634959,62.2008621 C125.508666,61.6646552 127.697544,60.4387931 129.586837,58.075 C131.441495,55.7818966 132.231154,53.3905172 132.035471,51.6784483 C131.870959,50.3198276 130.991251,49.7543103 129.702861,49.9663793 C127.938251,50.2284483 126.042032,51.8663793 125.087861,52.8956897 C123.659202,54.4784483 122.05391,56.5301724 120.834788,58.6646552 L120.760324,58.6215517 C121.551715,56.4715517 124.6203,49.1887931 126.026446,46.1025862 C127.766812,42.1922414 130.118471,37.3387931 134.442544,31.1353448 C135.294544,29.9439655 136.189837,28.6853448 137.218471,27.4474138 C141.809227,33.2060345 153.027227,34.1163793 162.416544,31.7215517 C173.527178,28.8922414 184.455983,21.3060345 182.793544,14.1336207" id="Fill-1" fill="#1A1918"></path>
                        <path d="M182.732588,66.7463793 C171.092051,69.8653448 158.684368,70.1601724 146.590124,70.5515517 L146.567612,70.4946552 C151.173954,67.6222414 156.942271,64.5343103 162.970344,62.3187931 C169.781149,59.8136207 180.145417,57.9239655 182.374124,63.917069 C182.732588,64.8877586 182.864198,65.8067241 182.732588,66.7463793 M106.184198,95.8274138 C98.5006122,98.7912069 87.1284902,101.323966 85.3205878,94.9687931 C83.4971,88.7498276 95.1012707,82.0015517 104.106149,78.6877586 C115.604685,74.455 129.624588,71.9791379 141.353441,71.1705172 L141.381149,71.2325862 C133.701027,77.3636207 121.140954,90.1136207 106.184198,95.8274138 M137.981807,50.3446552 C138.847661,48.9653448 139.555929,48.1774138 140.07371,48.0463793 C140.589759,47.9153448 140.891076,48.142931 140.965539,48.6687931 C141.117929,49.4808621 140.56032,50.9015517 139.379295,52.2325862 C138.385295,53.3377586 136.994734,54.3601724 135.924539,54.9360345 C136.319368,53.6205172 137.283929,51.4308621 137.981807,50.3446552 M208.685685,41.2877586 C206.351344,34.9843103 199.808954,33.9532759 193.545368,36.2567241 C187.880954,38.342931 185.049612,42.0705172 179.39732,44.3601724 C176.586759,45.5308621 174.39788,45.2325862 173.313832,44.5360345 C173.315563,44.5308621 173.315563,44.5256897 173.32249,44.5205172 C174.688807,43.3998276 175.514832,42.2739655 175.830002,41.2636207 C176.313149,39.7774138 175.571978,39.0860345 174.330344,39.4756897 C172.873978,40.0101724 171.767417,40.7636207 171.731051,42.1515517 C171.727588,43.2584483 172.1051,44.0808621 172.463563,44.5015517 C172.501661,44.5515517 172.548417,44.5963793 172.589978,44.642931 C171.97349,45.4963793 171.234051,46.4360345 170.288539,47.3946552 C169.517929,48.1981034 168.662466,48.8998276 168.091002,49.2894828 C168.659002,48.6584483 169.185441,47.3705172 169.322246,46.4860345 C169.601051,44.7136207 169.104051,43.2636207 168.63649,41.6774138 C168.480637,41.0515517 168.302271,40.6118966 168.641685,40.0412069 C168.851222,39.6774138 169.369002,39.3032759 169.793271,38.8343103 C170.423612,38.1877586 171.092051,37.2274138 169.775954,37.5601724 C169.369002,37.6618966 168.787149,37.9946552 168.2711,38.6118966 C167.947271,38.9998276 167.663271,39.5601724 167.61132,39.8136207 C166.582685,41.292931 165.773978,42.4101724 164.932368,43.4101724 C164.192929,44.3291379 163.420588,45.1325862 162.939173,45.6222414 C162.696734,45.8653448 162.665563,45.9963793 162.771198,46.1481034 C162.92532,46.2946552 163.126198,46.1222414 163.328807,45.9498276 C163.725368,45.6067241 164.495978,44.7998276 165.152295,44.0256897 C165.94888,43.0912069 166.916905,41.8739655 167.342905,41.1567241 L167.35849,41.217069 C166.916905,42.117069 166.764515,45.7998276 166.163612,47.7136207 C165.458807,50.2032759 164.262198,51.4808621 163.115807,51.7739655 C162.08371,52.0325862 161.26288,51.6946552 161.087978,50.7739655 C160.940783,49.9618966 161.524368,49.142931 161.965954,48.7239655 C162.608417,48.1377586 162.892417,47.5774138 162.857783,46.9756897 C162.812759,46.3187931 162.265539,45.855 161.448173,46.0015517 C160.547685,46.192931 159.837685,46.9705172 159.493076,47.9653448 C159.177905,48.3291379 158.835027,48.6118966 158.429807,48.7187931 C157.567417,48.9360345 156.705027,48.4256897 156.767368,46.7687931 C156.805466,45.7291379 157.643612,44.4808621 158.272222,43.5912069 C158.769222,42.9205172 158.651466,42.7032759 158.464441,42.692931 C158.151002,42.6515517 157.406368,42.8394828 157.132759,42.9705172 C156.805466,43.1118966 156.389856,43.405 155.678124,44.192931 C154.867685,45.067069 154.138637,46.0412069 153.416515,47.017069 C152.232027,48.592931 151.21032,50.3153448 150.739295,51.0981034 L150.597295,51.017069 C150.898612,50.2687931 151.430246,49.0377586 151.7281,48.2946552 C152.211246,47.0825862 152.474466,46.2239655 152.303027,45.5360345 C152.138515,44.9101724 151.63632,44.3739655 150.547076,44.6481034 C149.343539,44.955 148.375515,45.9308621 147.137344,47.5222414 C146.309588,48.5877586 145.360612,50.1032759 144.832441,50.905 C144.640222,51.2032759 144.487832,51.4360345 144.382198,51.6274138 C143.68432,52.592931 142.783832,53.7722414 142.06171,54.5894828 C139.981929,56.942931 138.137661,57.8360345 137.389563,58.0274138 L137.332417,58.0446552 C136.530637,58.2463793 135.95571,57.9067241 135.735783,57.055 C135.649198,56.7118966 135.630149,56.1653448 135.740978,55.6498276 C136.97049,54.9739655 138.743759,53.7946552 140.196661,52.5722414 C141.698051,51.2791379 143.234076,49.6739655 142.965661,48.1636207 C142.835783,47.405 142.174271,46.7239655 140.91532,47.0412069 C138.79571,47.5825862 136.040563,49.9256897 134.5461,51.9463793 C133.396246,53.3981034 132.289685,55.7446552 132.715685,57.6412069 C133.037783,59.1360345 134.346954,59.7153448 136.409417,59.1894828 C138.354124,58.6946552 140.485856,57.2360345 142.47732,55.0274138 C143.332783,54.0843103 144.588271,52.3032759 145.152807,51.4308621 C145.315588,51.2032759 145.421222,51.0274138 145.466246,50.8808621 C145.984027,50.1032759 146.529515,49.3101724 146.998807,48.6532759 C147.542563,47.905 148.240441,47.0567241 148.839612,46.5412069 C149.140929,46.2843103 149.454368,46.0825862 149.682954,46.2636207 C149.840539,46.405 149.798978,46.7239655 149.530563,47.3394828 C149.104563,48.2946552 148.413612,49.8705172 147.999734,50.8860345 C147.395368,52.3136207 146.674978,54.5084483 146.467173,55.3481034 C146.21088,56.267069 146.640344,56.2774138 147.440393,56.0756897 C148.070734,55.9136207 148.503661,55.6808621 148.801515,55.1791379 C150.476076,52.4446552 151.913393,50.1981034 153.205246,48.3446552 C153.56371,47.8291379 154.490173,46.6825862 155.184588,45.8343103 C154.980246,47.1636207 155.285027,48.3601724 155.851295,48.8912069 C156.571685,49.5567241 157.501612,49.6222414 158.573539,49.2843103 C158.826368,49.2032759 159.070539,49.0567241 159.292198,48.8912069 C159.266222,49.1584483 159.252368,49.4308621 159.290466,49.7084483 C159.472295,51.3653448 160.570198,53.0308621 163.60588,52.2532759 C165.327198,51.8205172 167.239002,50.7239655 168.14988,50.0015517 C169.1231,49.2687931 170.221002,48.3239655 171.26349,47.1481034 C171.930198,46.3894828 172.518978,45.6325862 172.970954,45.0118966 C174.527759,46.2136207 177.77471,46.0515517 182.34988,44.3032759 C186.95449,42.5412069 189.579759,40.6774138 194.205149,38.9756897 C199.864368,36.8946552 206.230124,37.0963793 207.920271,41.6377586 C211.272856,50.6687931 200.979588,60.3791379 188.322539,65.0360345 C186.679149,65.6412069 184.992466,66.1274138 183.304051,66.6118966 C183.338685,65.7739655 183.283271,64.692931 182.921344,63.7222414 C180.223344,56.4515517 169.632222,56.4222414 159.465368,60.167069 C153.019954,62.5343103 147.156393,66.4912069 142.136173,70.4705172 C129.969198,71.2325862 115.985661,73.6256897 103.820417,78.1084483 C94.5107585,81.5325862 82.6953195,88.6377586 84.6105878,95.092931 C86.662661,102.115345 98.277222,99.4877586 106.203246,96.4446552 C123.473563,89.8705172 132.570222,79.917069 145.606515,71.2584483 C158.156198,70.7739655 170.688563,70.6325862 182.651198,67.4636207 C181.768027,73.0981034 175.010905,78.542931 168.013076,81.1187931 L167.949002,81.142931 C160.530368,83.8774138 150.235368,85.3946552 147.757295,78.7274138 C147.156393,77.0981034 147.455978,75.6739655 147.856002,74.7032759 C147.987612,74.3101724 148.304515,74.0498276 148.120954,73.9153448 C147.928734,73.7774138 147.615295,74.2394828 147.495807,74.4843103 C146.993612,75.3636207 146.558954,77.1791379 147.215271,78.9291379 C149.887295,86.1394828 160.473222,84.655 168.26071,81.7894828 C175.585832,79.1584483 182.680637,73.3101724 183.347344,67.2825862 C185.035759,66.7963793 186.758807,66.2308621 188.523417,65.5808621 C201.727685,60.7222414 212.218368,50.7998276 208.685685,41.2877586" id="Fill-3" fill="#1A1918"></path>
                        <path d="M81.3449341,51.4110345 L81.2860561,51.4265517 C81.3761049,49.4006897 80.8773732,47.9455172 81.0869098,46.617931 C81.5319585,44.3196552 83.1216659,43.6075862 84.6369098,43.0972414 L81.3449341,51.4110345 Z M72.4682024,72.2593103 C69.5052512,79.2196552 67.0219829,85.4231034 61.6952512,86.78 C59.146178,87.4265517 57.5304951,86.1834483 56.9538366,83.9368966 C56.1832268,80.93 56.8049098,75.4317241 61.8736171,68.9782759 C66.8089829,62.7455172 73.3912024,58.6748276 78.9517146,57.2610345 C78.8391537,57.5024138 74.9739829,66.3989655 72.4682024,72.2593103 L72.4682024,72.2593103 Z M115.463032,17.5024138 C114.708007,13.38 110.129373,12.4213793 106.752544,13.2851724 C103.373983,14.1437931 100.41969,16.4162069 98.5529098,18.4110345 C95.7717878,21.3662069 92.7239829,25.4231034 89.3384951,32.4231034 C88.4172268,34.3024138 86.4205683,38.6368966 84.9624707,42.2282759 C82.0428122,43.2127586 80.7180561,44.4662069 80.399422,46.5472414 C80.1483244,48.1937931 80.9604951,49.9317241 80.8323488,52.5127586 C80.4011537,53.5834483 79.7933244,55.1248276 79.1941537,56.6506897 C73.245739,58.267931 66.0383732,62.5006897 60.7861049,68.8282759 C55.1823,75.5955172 53.7640317,81.1213793 54.6229585,84.4662069 C55.4385927,87.6386207 58.2837878,88.1334483 61.8892024,87.2851724 C66.5215195,86.1903448 70.133861,81.6937931 71.766861,79.23 C73.5314707,76.5662069 81.5700561,57.392069 81.9146659,56.8058621 C84.1814707,57.0782759 85.0403976,58.7731034 85.0542512,60.742069 C85.0975439,63.5541379 83.0697146,66.4627586 80.6695683,67.4437931 C80.132739,67.5213793 79.6392024,67.5248276 78.8893732,67.7162069 C78.3057878,67.867931 77.3966415,68.1575862 77.4399341,68.5748276 C77.4745683,68.9386207 78.198422,68.8748276 78.9499829,68.6834483 C79.5872512,68.5213793 79.919739,68.3731034 80.5864463,68.08 C81.6583732,67.6851724 84.3269341,67.9955172 84.8776171,70.8575862 C85.8612268,75.6472414 82.5727146,80.8455172 78.8062512,81.8093103 C77.7637634,82.067931 76.328178,82.0075862 76.2519829,80.9868966 C76.2017634,80.3213793 76.825178,79.8489655 77.3412268,79.4713793 C77.9663732,79.0110345 78.6555927,78.3437931 78.4218122,77.4213793 C78.1811049,76.4955172 77.2546415,76.242069 76.2693,76.492069 C74.5306659,76.9368966 73.0344707,78.7886207 73.5072268,80.6368966 C74.0717634,82.8265517 76.7264707,82.8265517 78.925739,82.2696552 C84.7737146,80.7782759 89.1687878,76.03 88.155739,71.1282759 C87.6639341,68.7334483 85.4646659,67.1472414 81.7830561,67.4644828 L81.7692024,67.4093103 C84.4481537,66.3024138 88.0120073,63.3627586 87.7176171,60.0593103 C87.5738854,57.5731034 85.6672756,56.4075862 83.3156171,56.1386207 C83.3156171,56.1386207 82.5934951,56.0955172 82.049739,56.1248276 C83.8507146,51.6024138 85.7642512,46.8248276 87.6448854,42.2127586 C89.2345927,41.7489655 90.3203732,41.4696552 92.7101293,40.7989655 C93.2833244,40.6524138 94.1422512,40.4351724 94.0539341,40.092069 C93.9829341,39.8093103 93.1240073,40.0248276 92.6079585,40.1575862 C91.0598122,40.5506897 89.1705195,41.03 87.925422,41.4144828 C89.1116415,38.4351724 91.0061293,33.7024138 93.2919829,29.0489655 C95.3319341,24.8817241 97.8186659,20.7851724 99.2958122,18.9524138 C101.192032,16.5834483 103.791324,14.5834483 106.943032,13.78 C109.976983,13.0127586 113.307056,14.1024138 113.989349,17.942069 C114.921007,22.9886207 110.89652,26.5644828 107.059056,27.5437931 C104.826885,28.1093103 102.099446,27.9575862 100.60152,25.9075862 C100.324446,25.5541379 100.166861,25.1696552 100.066422,25.2558621 C99.9088366,25.3524138 100.068154,25.7403448 100.298471,26.1644828 C101.760032,28.53 104.802641,28.7265517 107.609739,28.0093103 C111.904373,26.917931 116.366983,22.4368966 115.463032,17.5024138 L115.463032,17.5024138 Z" id="Fill-5" fill="#1A1918"></path>
                        <path d="M163.486046,30.9158621 L163.425437,30.9262069 C154.25951,33.2589655 143.294339,33.0831034 138.843851,27.4106897 C144.456315,20.5106897 152.602266,13.5141379 163.65229,10.4537931 C168.092388,9.20551724 172.146315,8.59517241 175.587217,8.93310345 C175.997632,9.55896552 176.297217,10.2710345 176.489437,11.0141379 C176.899851,12.6106897 176.388998,13.7106897 175.949144,14.3675862 C175.820998,14.5848276 175.535266,14.8986207 175.607998,14.9382759 C175.749998,15.0244828 176.009754,14.8382759 176.281632,14.4693103 C176.676461,13.877931 177.343168,12.6762069 176.889461,10.9089655 C176.730144,10.2813793 176.423632,9.56931034 176.150022,8.97275862 C179.893973,9.54 182.799778,11.3468966 183.549607,14.7417241 C185.123729,21.5710345 174.134315,28.1986207 163.486046,30.9158621 M138.033412,26.1572414 C137.784046,25.677931 137.500046,25.0210345 137.323412,24.3348276 C135.009851,16.2968966 144.511729,7.91758621 155.281217,5.17448276 C163.125851,3.17448276 171.917729,3.91241379 175.343046,8.44862069 C171.912534,8.16586207 167.803193,8.79172414 163.522412,9.94344828 C152.797949,12.8572414 144.504802,19.04 138.033412,26.1572414 M127.227559,60.3210345 C126.602412,60.9675862 125.847388,61.5882759 124.730437,61.9917241 C123.999656,62.24 123.400485,62.2710345 123.223851,61.8296552 C122.976217,61.102069 124.046412,60.2813793 125.973802,59.2434483 C126.830998,58.7796552 128.647559,57.7693103 129.250193,57.2606897 C128.7099,58.4865517 128.039729,59.452069 127.227559,60.3210345 M97.5374366,65.8882759 C96.3581439,67.7055172 94.5034854,69.5141379 93.4125098,69.7968966 C93.0142171,69.8917241 92.6817293,69.7968966 92.5241439,69.4141379 C92.2193634,68.6968966 92.8098756,66.9727586 94.5727537,64.09 C96.1070463,61.5141379 97.7729488,59.4451724 98.9176073,59.152069 C99.5462171,58.9917241 100.079583,59.1624138 100.214656,59.9210345 C100.389559,60.8468966 98.9574366,63.8193103 97.5374366,65.8882759 M184.050071,14.5503448 C183.215388,10.8175862 180.101778,8.93310345 175.959534,8.47275862 C172.774924,3.21068966 164.578754,1.71068966 154.957388,4.16413793 C144.078802,6.93827586 134.452241,16.0141379 136.821217,24.5210345 C137.009973,25.2641379 137.32168,25.9762069 137.66629,26.6175862 C136.014241,28.4968966 134.490339,30.4003448 133.092851,32.3348276 C129.040656,37.9262069 125.947827,43.9382759 124.233437,47.4744828 C123.223851,49.4934483 121.698217,53.0434483 121.159656,54.2727586 C120.1189,55.6951724 119.026193,57.3710345 118.312729,58.402069 C118.231339,58.5365517 118.18112,58.6451724 118.146485,58.7348276 C117.637363,59.4968966 117.112656,60.2141379 116.205241,61.3727586 C115.481388,62.3451724 114.613802,63.2348276 114.068315,63.7365517 C113.52629,64.2451724 113.141851,64.3951724 112.869973,64.2848276 C112.594632,64.1744828 112.492461,63.7762069 112.651778,63.19 C112.788583,62.5468966 113.224973,61.402069 113.905534,60.0106897 C114.785241,58.2106897 115.851973,56.6641379 115.659754,55.9193103 L115.644168,55.8658621 C115.377485,54.8365517 113.706388,55.202069 112.087241,55.5537931 C111.328754,55.6882759 111.055144,55.3313793 111.591973,54.3434483 C111.849998,53.9089655 112.03529,53.6813793 112.362583,53.2968966 C112.218851,52.9641379 111.642193,52.8727586 111.185022,52.9831034 C110.27068,53.2227586 109.569339,53.8262069 109.257632,54.5124138 C108.861071,55.3417241 109.122559,56.1296552 109.725193,56.3417241 C109.401363,56.9710345 108.842022,57.9003448 108.234193,58.8468966 C107.54151,59.9382759 107.151876,60.5227586 106.705095,61.2003448 C106.677388,61.24 106.647949,61.2848276 106.616778,61.3244828 C106.1319,62.0589655 105.4219,63.0831034 104.467729,64.3624138 C103.73868,65.3417241 102.843388,66.3555172 102.344656,66.7865517 C101.946363,67.1331034 101.432046,67.5037931 101.083973,67.352069 C100.815559,67.2348276 100.694339,66.7796552 100.921193,65.9986207 C101.201729,64.952069 101.698729,63.79 102.20612,62.6882759 C103.02868,60.9003448 103.922241,59.152069 104.446949,58.1089655 C104.84351,57.2831034 104.658217,57.027931 103.468534,57.3917241 C102.550729,57.6244828 101.767998,58.6141379 100.761876,60.3848276 C100.855388,59.3313793 100.190412,58.4055172 99.0007293,58.5262069 C97.0248512,58.6641379 94.1086561,60.8675862 92.5743634,62.7158621 C90.2937049,65.4831034 89.6616317,67.7693103 89.8417293,69.1848276 C90.1551683,71.1106897 91.5301439,71.2417241 92.7769732,70.8675862 C94.9208268,70.202069 97.0750707,67.6451724 98.2266561,65.952069 L98.2976561,65.9986207 C97.9426561,66.7572414 97.8023878,67.6382759 98.0223146,68.2555172 C98.2560951,68.9210345 98.9054854,69.3055172 99.9929976,69.0296552 C101.88229,68.5451724 103.420046,66.6951724 104.330924,65.4934483 C105.19851,64.3624138 106.265241,62.8106897 106.833241,61.9382759 C106.944071,61.7762069 107.032388,61.6348276 107.110315,61.5072414 C107.53112,60.8675862 108.000412,60.1503448 108.625559,59.1693103 C109.319973,58.0813793 109.917412,57.0813793 110.242973,56.452069 C110.559876,56.4917241 111.017046,56.3744828 111.585046,56.2296552 C113.020632,55.8658621 114.066583,55.4141379 113.995583,56.0986207 C113.926315,56.5434483 112.147851,58.6382759 111.108827,60.3003448 C110.159851,61.8158621 109.136412,63.7796552 109.404827,65.0417241 C109.565876,65.9175862 110.357266,66.3865517 111.559071,66.0796552 C113.448363,65.5986207 115.103876,63.7193103 116.066705,62.4968966 C117.221754,61.0486207 118.104924,59.7348276 118.633095,58.927931 C118.799339,58.6451724 118.965583,58.3848276 119.059095,58.1934483 C119.415827,57.6537931 119.862607,56.9882759 120.338827,56.3106897 L120.395973,56.2934483 C119.95612,57.1934483 119.63229,58.0693103 119.306729,58.94 C118.6989,60.6141379 118.163802,62.0831034 117.942144,63.3555172 C117.815729,64.0589655 117.848632,64.4124138 118.975973,64.0624138 C119.590729,63.8468966 120.091193,63.4158621 120.434071,62.84 C122.051485,60.1227586 123.287924,58.0486207 125.310559,55.4658621 C126.960876,53.3434483 128.599071,51.8934483 129.631168,51.6313793 C130.60612,51.3831034 130.711754,52.5037931 130.640754,53.1917241 C130.559363,54.0606897 129.956729,55.7382759 129.544583,56.5124138 C128.62851,57.2331034 126.972998,58.1434483 125.476802,58.9503448 C123.442046,60.0727586 122.082656,60.9675862 122.306046,62.0624138 C122.55368,63.0313793 123.632534,62.9417241 124.891485,62.6175862 C126.765193,62.0831034 128.954071,60.8572414 130.843363,58.4934483 C132.698022,56.2003448 133.48768,53.8089655 133.291998,52.0951724 C133.127485,50.7365517 132.247778,50.1710345 130.959388,50.3831034 C129.194778,50.6451724 127.298559,52.2831034 126.344388,53.3141379 C124.915729,54.8968966 123.310437,56.9468966 122.091315,59.0813793 L122.016851,59.0382759 C122.808241,56.89 125.876827,49.6055172 127.282973,46.5193103 C129.023339,42.6089655 131.374998,37.7555172 135.699071,31.552069 C136.551071,30.3606897 137.446363,29.102069 138.474998,27.8641379 C143.065754,33.6227586 154.283754,34.5331034 163.673071,32.1382759 C174.783705,29.3089655 185.71251,21.7227586 184.050071,14.5503448" id="Fill-7" fill="#F3C48C"></path>
                        <path d="M183.989115,67.1639655 C172.348578,70.282931 159.940895,70.5777586 147.846651,70.9691379 L147.824139,70.9122414 C152.43048,68.0398276 158.198798,64.9518966 164.226871,62.7363793 C171.037676,60.2312069 181.401944,58.3415517 183.630651,64.3346552 C183.989115,65.3053448 184.120724,66.2243103 183.989115,67.1639655 M107.440724,96.245 C99.757139,99.2087931 88.3850171,101.741552 86.5771146,95.3863793 C84.7536268,89.1674138 96.3577976,82.4191379 105.362676,79.1053448 C116.861212,74.8725862 130.881115,72.3967241 142.609968,71.5881034 L142.637676,71.6501724 C134.957554,77.7812069 122.39748,90.5312069 107.440724,96.245 M139.238334,50.7622414 C140.104188,49.382931 140.812456,48.595 141.330237,48.4639655 C141.846285,48.332931 142.147602,48.5587931 142.222066,49.0846552 C142.374456,49.8984483 141.816846,51.3174138 140.635822,52.6501724 C139.641822,53.7553448 138.251261,54.7777586 137.181066,55.3536207 C137.575895,54.0381034 138.540456,51.8484483 139.238334,50.7622414 M209.942212,41.7053448 C207.607871,35.4018966 201.06548,34.3708621 194.801895,36.6743103 C189.13748,38.7605172 186.306139,42.4881034 180.653846,44.7760345 C177.843285,45.9484483 175.654407,45.6501724 174.570359,44.9536207 C174.57209,44.9484483 174.57209,44.9432759 174.579017,44.9381034 C175.945334,43.8156897 176.771359,42.6898276 177.086529,41.6794828 C177.569676,40.195 176.828505,39.5036207 175.586871,39.8915517 C174.130505,40.4277586 173.023944,41.1794828 172.987578,42.5691379 C172.984115,43.6743103 173.361627,44.4984483 173.72009,44.9174138 C173.758188,44.9674138 173.804944,45.0139655 173.846505,45.0587931 C173.230017,45.9122414 172.490578,46.8518966 171.545066,47.8122414 C170.774456,48.6156897 169.918993,49.3174138 169.347529,49.707069 C169.915529,49.0743103 170.441968,47.7863793 170.578773,46.9036207 C170.857578,45.1294828 170.360578,43.6794828 169.893017,42.0932759 C169.737163,41.4674138 169.558798,41.0277586 169.898212,40.457069 C170.107749,40.0932759 170.625529,39.7208621 171.049798,39.2501724 C171.680139,38.6036207 172.348578,37.6432759 171.03248,37.9777586 C170.625529,38.0777586 170.043676,38.4122414 169.527627,39.0277586 C169.203798,39.4174138 168.919798,39.9777586 168.867846,40.2294828 C167.839212,41.7105172 167.030505,42.8260345 166.188895,43.8260345 C165.449456,44.7467241 164.677115,45.5484483 164.1957,46.0398276 C163.953261,46.2812069 163.92209,46.4122414 164.027724,46.5639655 C164.181846,46.7105172 164.382724,46.5398276 164.585334,46.3674138 C164.981895,46.0243103 165.752505,45.2156897 166.408822,44.4432759 C167.205407,43.5087931 168.173432,42.2915517 168.599432,41.5743103 L168.615017,41.6346552 C168.173432,42.532931 168.021041,46.2156897 167.420139,48.1294828 C166.715334,50.6208621 165.518724,51.8984483 164.372334,52.1915517 C163.340237,52.4484483 162.519407,52.1105172 162.344505,51.1915517 C162.19731,50.3777586 162.780895,49.5605172 163.22248,49.1398276 C163.864944,48.5553448 164.148944,47.9932759 164.11431,47.3932759 C164.069285,46.7363793 163.522066,46.2708621 162.7047,46.4174138 C161.804212,46.6105172 161.094212,47.3881034 160.749602,48.382931 C160.434432,48.7467241 160.091554,49.0294828 159.686334,49.1346552 C158.823944,49.3518966 157.961554,48.8432759 158.023895,47.1863793 C158.061993,46.145 158.900139,44.8967241 159.528749,44.0087931 C160.025749,43.3363793 159.907993,43.1191379 159.720968,43.1087931 C159.407529,43.0691379 158.662895,43.2553448 158.389285,43.3863793 C158.061993,43.5294828 157.646383,43.8208621 156.934651,44.6087931 C156.124212,45.482931 155.395163,46.4587931 154.673041,47.432931 C153.488554,49.0087931 152.466846,50.7312069 151.995822,51.5139655 L151.853822,51.432931 C152.155139,50.6863793 152.686773,49.4536207 152.984627,48.7105172 C153.467773,47.4984483 153.730993,46.6398276 153.559554,45.9536207 C153.395041,45.3260345 152.892846,44.7915517 151.803602,45.0639655 C150.600066,45.3725862 149.632041,46.3467241 148.393871,47.9381034 C147.566115,49.0036207 146.617139,50.5191379 146.088968,51.3225862 C145.896749,51.6208621 145.744359,51.8536207 145.638724,52.045 C144.940846,53.0105172 144.040359,54.1898276 143.318237,55.007069 C141.238456,57.3605172 139.394188,58.2536207 138.64609,58.445 L138.588944,58.4622414 C137.787163,58.6639655 137.212237,58.3243103 136.99231,57.4725862 C136.905724,57.1294828 136.886676,56.582931 136.997505,56.0674138 C138.227017,55.3915517 140.000285,54.2122414 141.453188,52.9898276 C142.954578,51.6967241 144.490602,50.0898276 144.222188,48.5794828 C144.09231,47.8225862 143.430798,47.1398276 142.171846,47.4587931 C140.052237,47.9984483 137.29709,50.3432759 135.802627,52.3639655 C134.652773,53.8156897 133.546212,56.1622414 133.972212,58.0587931 C134.29431,59.5536207 135.60348,60.132931 137.665944,59.607069 C139.610651,59.1122414 141.742383,57.6536207 143.733846,55.445 C144.58931,54.5018966 145.844798,52.7208621 146.409334,51.8484483 C146.572115,51.6208621 146.677749,51.4432759 146.722773,51.2967241 C147.240554,50.5191379 147.786041,49.7260345 148.255334,49.0691379 C148.79909,48.3225862 149.496968,47.4743103 150.096139,46.9587931 C150.397456,46.7001724 150.710895,46.4984483 150.93948,46.6812069 C151.097066,46.8225862 151.055505,47.1398276 150.78709,47.757069 C150.36109,48.7105172 149.670139,50.2863793 149.256261,51.3018966 C148.651895,52.7312069 147.931505,54.9260345 147.7237,55.7656897 C147.467407,56.6846552 147.896871,56.695 148.69692,56.4932759 C149.327261,56.3312069 149.760188,56.0984483 150.058041,55.5967241 C151.732602,52.8622414 153.16992,50.6156897 154.461773,48.7622414 C154.820237,48.2467241 155.7467,47.1001724 156.441115,46.2518966 C156.236773,47.5794828 156.541554,48.7760345 157.107822,49.307069 C157.828212,49.9743103 158.758139,50.0398276 159.830066,49.7018966 C160.082895,49.6208621 160.327066,49.4743103 160.548724,49.307069 C160.522749,49.5743103 160.508895,49.8484483 160.546993,50.1260345 C160.728822,51.782931 161.826724,53.4484483 164.862407,52.6708621 C166.583724,52.2363793 168.495529,51.1415517 169.406407,50.4191379 C170.379627,49.6863793 171.477529,48.7415517 172.520017,47.5639655 C173.186724,46.807069 173.775505,46.0484483 174.22748,45.4277586 C175.784285,46.6294828 179.031237,46.4691379 183.606407,44.7208621 C188.211017,42.957069 190.836285,41.0932759 195.461676,39.3915517 C201.120895,37.3105172 207.486651,37.5122414 209.176798,42.0536207 C212.529383,51.0846552 202.236115,60.7967241 189.579066,65.4536207 C187.935676,66.0587931 186.248993,66.545 184.560578,67.0294828 C184.595212,66.1915517 184.539798,65.1105172 184.177871,64.1398276 C181.479871,56.8691379 170.888749,56.8398276 160.721895,60.5846552 C154.27648,62.9518966 148.41292,66.9087931 143.3927,70.8881034 C131.225724,71.6501724 117.242188,74.0432759 105.076944,78.5260345 C95.7672854,81.9501724 83.9518463,89.0553448 85.8671146,95.5105172 C87.9191878,102.532931 99.5337488,99.9053448 107.459773,96.8622414 C124.73009,90.2881034 133.826749,80.3346552 146.863041,71.6760345 C159.412724,71.1915517 171.94509,71.0501724 183.907724,67.8812069 C183.024554,73.5156897 176.267432,78.9605172 169.269602,81.5363793 L169.205529,81.5605172 C161.786895,84.295 151.491895,85.8122414 149.013822,79.145 C148.41292,77.5156897 148.712505,76.0915517 149.112529,75.1208621 C149.244139,74.7277586 149.561041,74.4674138 149.37748,74.332931 C149.185261,74.195 148.871822,74.657069 148.752334,74.9018966 C148.250139,75.7812069 147.81548,77.5967241 148.471798,79.3467241 C151.143822,86.557069 161.729749,85.0725862 169.517237,82.207069 C176.842359,79.5760345 183.937163,73.7277586 184.603871,67.7001724 C186.292285,67.2139655 188.015334,66.6484483 189.779944,65.9984483 C202.984212,61.1398276 213.474895,51.2156897 209.942212,41.7053448" id="Fill-9" fill="#F3C48C"></path>
                        <path d="M82.601461,51.8277586 L82.5425829,51.8432759 C82.6326317,49.8174138 82.1339,48.3622414 82.3434366,47.0346552 C82.7884854,44.7363793 84.3781927,44.0243103 85.8934366,43.5139655 L82.601461,51.8277586 Z M73.7247293,72.6760345 C70.761778,79.6363793 68.2785098,85.8398276 62.951778,87.1967241 C60.4027049,87.8432759 58.787022,86.6001724 58.2103634,84.3553448 C57.4397537,81.3484483 58.0614366,75.8484483 63.1301439,69.3967241 C68.0655098,63.1639655 74.6477293,59.0915517 80.2082415,57.6777586 C80.0956805,57.9208621 76.2305098,66.8174138 73.7247293,72.6760345 L73.7247293,72.6760345 Z M116.719559,17.9191379 C115.964534,13.7967241 111.3859,12.8381034 108.009071,13.7018966 C104.63051,14.5605172 101.676217,16.832931 99.8094366,18.8277586 C97.0283146,21.782931 93.9805098,25.8398276 90.595022,32.8398276 C89.6737537,34.7191379 87.6770951,39.0536207 86.2189976,42.645 C83.299339,43.6294828 81.9745829,44.882931 81.6559488,46.9639655 C81.4048512,48.6105172 82.217022,50.3484483 82.0888756,52.9294828 C81.6576805,54.0001724 81.0498512,55.5432759 80.4506805,57.0691379 C74.5022659,58.6846552 67.2949,62.9174138 62.0426317,69.245 C56.4388268,76.0139655 55.0205585,81.5398276 55.8794854,84.882931 C56.6951195,88.0553448 59.5403146,88.5501724 63.1457293,87.7018966 C67.7780463,86.607069 71.3903878,82.1122414 73.0233878,79.6467241 C74.7879976,76.982931 82.8265829,57.8087931 83.1711927,57.2225862 C85.4379976,57.4967241 86.2969244,59.1898276 86.310778,61.1605172 C86.3540707,63.9708621 84.3262415,66.8812069 81.9260951,67.8605172 C81.3892659,67.9381034 80.8957293,67.9415517 80.1459,68.1346552 C79.5623146,68.2846552 78.6531683,68.5743103 78.696461,68.9932759 C78.7310951,69.357069 79.4549488,69.2915517 80.2065098,69.1001724 C80.843778,68.9381034 81.1762659,68.7898276 81.8429732,68.4967241 C82.9149,68.1036207 85.583461,68.4139655 86.1341439,71.2760345 C87.1177537,76.0639655 83.8292415,81.2639655 80.062778,82.2260345 C79.0202902,82.4863793 77.5847049,82.4260345 77.5085098,81.4053448 C77.4582902,80.7381034 78.0817049,80.2674138 78.5977537,79.8898276 C79.2229,79.4277586 79.9121195,78.7622414 79.678339,77.8381034 C79.4376317,76.9122414 78.5111683,76.6605172 77.5258268,76.9087931 C75.7871927,77.3536207 74.2909976,79.2053448 74.7637537,81.0553448 C75.3282902,83.2432759 77.9829976,83.2432759 80.1822659,82.6881034 C86.0302415,81.1967241 90.4253146,76.4484483 89.4122659,71.545 C88.920461,69.1501724 86.7211927,67.5639655 83.0395829,67.8812069 L83.0257293,67.8277586 C85.7046805,66.7191379 89.2685341,63.7794828 88.9741439,60.4760345 C88.8304122,57.9915517 86.9238024,56.8260345 84.5721439,56.557069 C84.5721439,56.557069 83.850022,56.5122414 83.3062659,56.5432759 C85.1072415,52.0191379 87.020778,47.2415517 88.9014122,42.6294828 C90.4911195,42.1656897 91.5769,41.8863793 93.9666561,41.2156897 C94.5398512,41.0691379 95.398778,40.8518966 95.310461,40.5087931 C95.239461,40.2260345 94.3805341,40.4415517 93.8644854,40.5743103 C92.316339,40.9674138 90.4270463,41.4467241 89.1819488,41.8312069 C90.3681683,38.8518966 92.2626561,34.1191379 94.5485098,29.4656897 C96.588461,25.2984483 99.0751927,21.2018966 100.552339,19.3691379 C102.448559,17.0001724 105.047851,15.0001724 108.199559,14.1967241 C111.23351,13.4294828 114.563583,14.5191379 115.245876,18.3587931 C116.177534,23.4053448 112.153046,26.9812069 108.315583,27.9605172 C106.083412,28.5260345 103.355973,28.3743103 101.858046,26.3243103 C101.580973,25.9708621 101.423388,25.5863793 101.322949,25.6725862 C101.165363,25.7691379 101.32468,26.157069 101.554998,26.5812069 C103.016559,28.9467241 106.059168,29.1432759 108.866266,28.4260345 C113.1609,27.3346552 117.62351,22.8536207 116.719559,17.9191379 L116.719559,17.9191379 Z" id="Fill-11" fill="#F3C48C"></path>
                        <path d="M73.2866073,34.257069 C73.8753878,33.3225862 74.3585341,32.7863793 74.7100707,32.6967241 C75.0616073,32.6105172 75.2659488,32.7622414 75.3179,33.1260345 C75.418339,33.6760345 75.0442902,34.6415517 74.240778,35.5398276 C73.5602171,36.2984483 72.6199,36.9898276 71.8891195,37.382931 C72.1575341,36.4898276 72.8121195,35.0001724 73.2866073,34.257069 M78.3466561,34.4139655 C78.2496805,34.3587931 78.1405829,34.4294828 77.957022,34.6760345 C77.4738756,35.3777586 76.6720951,36.4536207 76.0608024,37.1467241 C74.6477293,38.7432759 73.3922415,39.3536207 72.8848512,39.4846552 L72.8467537,39.495 C72.3029976,39.6312069 71.9099,39.3984483 71.7609732,38.8191379 C71.7038268,38.5863793 71.6899732,38.2174138 71.7661683,37.8691379 C72.6025829,37.4087931 73.8061195,36.6053448 74.7983878,35.7725862 C75.8131683,34.8932759 76.8608512,33.8018966 76.679022,32.7725862 C76.5872415,32.2622414 76.1387293,31.7967241 75.2815341,32.0139655 C73.8407537,32.382931 71.9670463,33.9743103 70.9539976,35.3484483 C70.3981195,36.045 69.8699488,37.0398276 69.7054366,38.0208621 C69.5859488,38.1812069 69.4681927,38.3381034 69.3539,38.4794828 C68.6352415,39.4087931 68.1988512,39.8087931 67.7936317,40.1622414 C67.520022,40.395 67.1303878,40.657069 66.898339,40.5553448 C66.7113146,40.4794828 66.6818756,40.1967241 66.8342659,39.6622414 C66.969339,39.2122414 67.2464122,38.5260345 67.6828024,37.6260345 C68.1036073,36.6967241 68.6923878,35.595 68.631778,34.8639655 C68.5399976,34.1863793 67.9719976,33.9191379 67.1511683,34.1260345 C65.9839976,34.4243103 64.5501439,35.9484483 63.4453146,37.3036207 C62.3456805,38.657069 61.3464854,40.1122414 60.6139732,41.1208621 L60.5637537,41.0967241 C61.147339,39.5001724 62.7162659,35.4243103 64.9622902,30.7622414 C66.100022,28.407069 68.5590463,23.7708621 69.1097293,22.8467241 C69.0214122,22.6639655 68.844778,22.6243103 68.4568756,22.7260345 C67.9494854,22.857069 67.5529244,23.245 67.2204366,23.7398276 C65.9441683,25.7208621 64.7492902,27.8415517 63.7760707,29.7001724 C62.9465829,31.3174138 62.0616805,33.1967241 61.3759244,34.7312069 C60.6763146,36.2777586 59.9715098,37.9501724 59.5247293,39.045 C59.426022,39.1208621 59.3186561,39.282931 59.2234122,39.4139655 C58.8943878,39.9087931 58.3540951,40.7122414 57.7947537,41.4294828 C57.2977537,42.0915517 56.7470707,42.6881034 56.3418512,43.0363793 C56.0682415,43.2725862 55.6682171,43.5001724 55.4049976,43.445 C55.053461,43.3691379 55.0326805,42.7932759 55.1556317,42.3087931 C55.5089,40.7725862 56.3228024,38.4553448 56.8630951,37.3277586 C57.7479976,37.0605172 58.3731439,36.9036207 59.230339,36.6812069 C59.5403146,36.6053448 59.852022,36.5243103 59.8797293,36.3122414 C59.8797293,36.1467241 59.7411927,36.1001724 59.2736317,36.2174138 C58.6484854,36.3777586 57.910778,36.5656897 57.0639732,36.8225862 C57.5834854,35.6156897 58.0666317,34.5846552 58.7021683,33.3484483 C59.3359732,32.1156897 60.0719488,30.7674138 60.4304122,30.2208621 C60.4009732,30.1105172 60.2139488,30.0294828 59.7844854,30.1398276 C58.9688512,30.3467241 58.2605829,31.4794828 57.7410707,32.3536207 C57.1038024,33.4294828 55.9452902,35.5398276 55.1175341,37.3225862 C54.8837537,37.3794828 54.0750463,37.6260345 54.0386805,37.6363793 C53.4637537,37.8225862 53.0464122,37.9691379 53.0464122,38.1363793 C53.0550707,38.3381034 53.2905829,38.2777586 53.5243634,38.2225862 C53.6022902,38.2018966 54.4109976,37.9553448 54.9149244,37.8225862 C54.7798512,38.1053448 54.385022,38.995 54.1529732,39.545 C53.4897293,41.1622414 52.9044122,42.9243103 53.0775829,43.9105172 C53.1884122,44.5001724 53.6317293,44.9260345 54.4871927,44.7087931 L54.5252902,44.6984483 C56.0059,44.3243103 57.0691683,42.9760345 57.7012415,42.1967241 C58.1133878,41.6725862 58.6138512,40.9656897 59.0104122,40.3794828 C58.6588756,41.3484483 58.361022,42.2484483 58.1843878,42.9812069 C58.052778,43.5915517 58.307339,43.6122414 58.8510951,43.4760345 C59.2805585,43.3639655 59.4935585,43.2225862 59.7740951,42.8639655 C61.147339,41.1122414 61.8521439,39.9846552 63.2271195,38.2277586 C64.2280463,36.9398276 65.1458512,36.0001724 65.7571439,35.4743103 C66.0965585,35.1812069 66.484461,34.9191379 66.7113146,34.9846552 C66.9347049,35.0501724 66.9156561,35.3018966 66.810022,35.5346552 C66.4913878,36.2363793 66.0688512,37.0105172 65.6636317,37.8536207 C65.152778,38.9346552 64.5466805,40.1208621 64.7250463,40.9846552 C64.8566561,41.6518966 65.3744366,41.895 66.1537049,41.6932759 C67.3607049,41.3898276 68.631778,40.0312069 69.2603878,39.2518966 C69.3798756,39.0967241 69.5132171,38.9191379 69.6448268,38.7381034 C69.6534854,38.9036207 69.6708024,39.0656897 69.7071683,39.2174138 C69.9288268,40.2381034 70.8137293,40.6312069 72.2181439,40.2725862 C73.5411683,39.9346552 74.9906073,38.945 76.3448024,37.445 C76.9266561,36.8036207 77.7786561,35.595 78.1630951,35.0001724 C78.3760951,34.6967241 78.454022,34.5087931 78.3466561,34.4139655" id="Fill-13" fill="#1A1918"></path>
                        <path d="M74.5431341,34.6737931 C75.1319146,33.7393103 75.615061,33.2031034 75.9665976,33.1134483 C76.3181341,33.0272414 76.5224756,33.1789655 76.5744268,33.5427586 C76.6748659,34.0927586 76.3008171,35.0582759 75.4973049,35.9565517 C74.8167439,36.7151724 73.8764268,37.4065517 73.1456463,37.7996552 C73.414061,36.9065517 74.0686463,35.4168966 74.5431341,34.6737931 M79.6031829,34.8306897 C79.5062073,34.7755172 79.3971098,34.8462069 79.2135488,35.0927586 C78.7304024,35.7944828 77.928622,36.8703448 77.3173293,37.5634483 C75.9042561,39.16 74.6487683,39.7703448 74.141378,39.9013793 L74.1032805,39.9117241 C73.5595244,40.047931 73.1664268,39.8151724 73.0175,39.2358621 C72.9603537,39.0031034 72.9465,38.6341379 73.0226951,38.2858621 C73.8591098,37.8255172 75.0626463,37.022069 76.0549146,36.1893103 C77.0696951,35.31 78.117378,34.2186207 77.9355488,33.1893103 C77.8437683,32.6789655 77.3952561,32.2134483 76.538061,32.4306897 C75.0972805,32.7996552 73.2235732,34.3910345 72.2105244,35.7651724 C71.6546463,36.4617241 71.1264756,37.4565517 70.9619634,38.4375862 C70.8424756,38.597931 70.7247195,38.7548276 70.6104268,38.8962069 C69.8917683,39.8255172 69.455378,40.2255172 69.0501585,40.5789655 C68.7765488,40.8117241 68.3869146,41.0737931 68.1548659,40.972069 C67.9678415,40.8962069 67.9384024,40.6134483 68.0907927,40.0789655 C68.2258659,39.6289655 68.502939,38.9427586 68.9393293,38.0427586 C69.3601341,37.1134483 69.9489146,36.0117241 69.8883049,35.2806897 C69.7965244,34.6031034 69.2285244,34.3358621 68.4076951,34.5427586 C67.2405244,34.8410345 65.8066707,36.3651724 64.7018415,37.7203448 C63.6022073,39.0737931 62.6030122,40.5289655 61.8705,41.5375862 L61.8202805,41.5134483 C62.4038659,39.9168966 63.9727927,35.8410345 66.2188171,31.1789655 C67.3565488,28.8237931 69.8155732,24.1875862 70.3662561,23.2634483 C70.277939,23.0806897 70.1013049,23.0410345 69.7134024,23.1427586 C69.2060122,23.2737931 68.8094512,23.6617241 68.4769634,24.1565517 C67.2006951,26.1375862 66.0058171,28.2582759 65.0325976,30.1168966 C64.2031098,31.7341379 63.3182073,33.6134483 62.6324512,35.147931 C61.9328415,36.6944828 61.2280366,38.3668966 60.7812561,39.4617241 C60.6825488,39.5375862 60.5751829,39.6996552 60.479939,39.8306897 C60.1509146,40.3255172 59.610622,41.1289655 59.0512805,41.8462069 C58.5542805,42.5082759 58.0035976,43.1048276 57.598378,43.4531034 C57.3247683,43.6893103 56.9247439,43.9168966 56.6615244,43.8617241 C56.3099878,43.7858621 56.2892073,43.21 56.4121585,42.7255172 C56.7654268,41.1893103 57.5793293,38.872069 58.119622,37.7444828 C59.0045244,37.4772414 59.6296707,37.3203448 60.4868659,37.097931 C60.7968415,37.022069 61.1085488,36.9410345 61.1362561,36.7289655 C61.1362561,36.5634483 60.9977195,36.5168966 60.5301585,36.6341379 C59.9050122,36.7944828 59.1673049,36.9824138 58.3205,37.2393103 C58.8400122,36.0324138 59.3231585,35.0013793 59.9586951,33.7651724 C60.5925,32.5324138 61.3284756,31.1841379 61.686939,30.6375862 C61.6575,30.5272414 61.4704756,30.4462069 61.0410122,30.5565517 C60.225378,30.7634483 59.5171098,31.8962069 58.9975976,32.7703448 C58.3603293,33.8462069 57.2018171,35.9565517 56.374061,37.7393103 C56.1402805,37.7962069 55.3315732,38.0427586 55.2952073,38.0531034 C54.7202805,38.2393103 54.302939,38.3858621 54.302939,38.5531034 C54.3115976,38.7548276 54.5471098,38.6944828 54.7808902,38.6393103 C54.8588171,38.6186207 55.6675244,38.372069 56.1714512,38.2393103 C56.036378,38.522069 55.6415488,39.4117241 55.4095,39.9617241 C54.7462561,41.5789655 54.160939,43.3410345 54.3341098,44.3272414 C54.444939,44.9168966 54.8882561,45.3427586 55.7437195,45.1255172 L55.7818171,45.1151724 C57.2624268,44.7410345 58.3256951,43.3927586 58.9577683,42.6134483 C59.3699146,42.0893103 59.870378,41.3824138 60.266939,40.7962069 C59.9154024,41.7651724 59.6175488,42.6651724 59.4409146,43.397931 C59.3093049,44.0082759 59.5638659,44.0289655 60.107622,43.8927586 C60.5370854,43.7806897 60.7500854,43.6393103 61.030622,43.2806897 C62.4038659,41.5289655 63.1086707,40.4013793 64.4836463,38.6444828 C65.4845732,37.3565517 66.402378,36.4168966 67.0136707,35.8910345 C67.3530854,35.597931 67.7409878,35.3358621 67.9678415,35.4013793 C68.1912317,35.4668966 68.1721829,35.7186207 68.0665488,35.9513793 C67.7479146,36.6531034 67.325378,37.4272414 66.9201585,38.2703448 C66.4093049,39.3513793 65.8032073,40.5375862 65.9815732,41.4013793 C66.1131829,42.0686207 66.6309634,42.3117241 67.4102317,42.11 C68.6172317,41.8065517 69.8883049,40.447931 70.5169146,39.6686207 C70.6364024,39.5134483 70.7697439,39.3358621 70.9013537,39.1548276 C70.9100122,39.3203448 70.9273293,39.4824138 70.9636951,39.6341379 C71.1853537,40.6548276 72.0702561,41.047931 73.4746707,40.6893103 C74.7976951,40.3513793 76.2471341,39.3617241 77.6013293,37.8617241 C78.1831829,37.2203448 79.0351829,36.0117241 79.419622,35.4168966 C79.632622,35.1134483 79.7105488,34.9255172 79.6031829,34.8306897" id="Fill-15" fill="#F3C48C"></path>
                        <path d="M70.5165683,52.7748276 C69.3355439,54.5937931 67.4826171,56.4075862 66.3933732,56.6817241 C65.9933488,56.7817241 65.6591293,56.6851724 65.5032756,56.3006897 C65.1967634,55.5903448 65.7890073,53.8558621 67.5536171,50.9765517 C69.086178,48.4006897 70.7520805,46.3351724 71.896739,46.042069 C72.5270805,45.88 73.0569829,46.0524138 73.1885927,46.8093103 C73.3686902,47.7334483 71.9365683,50.7093103 70.5165683,52.7748276 M33.7887878,77.7472414 C32.1332756,81.7593103 29.9876902,85.2817241 28.3477634,86.9713793 C27.1355683,88.1937931 26.0342024,88.8972414 25.0921537,89.0213793 C24.2592024,89.1093103 23.6409829,88.8403448 23.3916171,87.8696552 C22.6608366,85.2644828 26.030739,80.3334483 28.5659585,77.6231034 C32.9575683,72.8575862 34.6286659,71.7644828 37.3942024,68.7541379 C36.4053976,71.5558621 35.1880073,74.4144828 33.7887878,77.7472414 M31.7626902,54.4524138 C33.0337634,54.5593103 34.817422,54.4386207 36.4815927,54.0851724 C34.7897146,55.0041379 32.9731537,55.8024138 31.1133,56.4593103 C31.296861,55.792069 31.5150561,55.1248276 31.7626902,54.4524138 M24.6367146,49.0317241 C23.5803732,44.93 26.8758122,41.6024138 30.9401293,40.5662069 C33.3454707,39.9506897 35.8010317,40.2386207 38.130178,41.4644828 C36.2737878,43.0368966 34.4520317,44.9558621 32.6995439,47.1627586 C31.1739098,49.067931 29.6552024,51.7093103 28.8464951,53.3110345 C26.8931293,52.5937931 25.1804707,51.1437931 24.6367146,49.0317241 M39.2263488,42.1575862 C40.1025927,42.7282759 40.9961537,43.592069 41.6161049,44.5868966 C42.2100805,45.4713793 42.2845439,45.9955172 42.4421293,45.8955172 C42.556422,45.8644828 42.5391049,45.33 42.0161293,44.2437931 C41.6247634,43.43 40.7727634,42.2524138 39.9069098,41.5006897 C41.5641537,39.8696552 43.1833,38.7024138 44.6760317,37.9351724 C45.0760561,38.6110345 45.3843,39.3696552 45.5695927,40.2282759 C46.7021293,45.43 43.2785439,49.8506897 38.2271537,53.0575862 C37.7942268,53.1989655 37.3630317,53.3231034 36.9335683,53.4386207 C35.3300073,53.8455172 33.6121537,54.0437931 32.006861,53.9627586 C32.6406659,52.1593103 33.5047878,50.2989655 34.5282268,48.5817241 C36.0607878,46.0058621 37.6522268,43.8955172 39.2263488,42.1575862 M47.0502024,37.0058621 C48.7680561,36.5662069 51.005422,36.4851724 51.5457146,38.5903448 C52.1518122,40.93 49.5629098,45.3593103 46.4406415,48.1575862 C44.6050317,49.8455172 42.6672512,51.1282759 40.7069585,52.0627586 C44.6898854,48.8403448 47.117739,44.7282759 46.1133488,40.1110345 C45.9211293,39.2282759 45.626739,38.4144828 45.2423,37.6610345 C45.8726415,37.3731034 46.478739,37.1506897 47.0502024,37.0058621 M86.9158366,2.60068966 L86.9643244,2.59206897 C96.5250805,0.53 110.101666,-1.59068966 111.467983,4.68172414 C112.595324,9.86965517 102.69169,13.1834483 95.1293244,14.6231034 C83.6498366,16.8162069 70.9044707,15.3558621 56.6767634,15.5886207 C63.4460073,10.0662069 76.494422,4.84896552 86.9158366,2.60068966 M85.6343732,25.6506897 C84.830861,25.8575862 84.2316902,26.3765517 83.7606659,27.1644828 C81.8834951,30.0696552 80.1673732,33.1265517 78.7681537,35.9696552 C76.7126171,40.0765517 74.9116415,44.0006897 73.796422,47.0162069 L73.7358122,47.0317241 C73.7462024,46.117931 73.1106659,45.3093103 71.979861,45.4144828 C70.317422,45.5972414 68.4056171,46.9351724 66.6617878,48.4713793 C65.6625927,49.3351724 64.9093,50.1937931 64.4382756,50.7386207 C63.9689829,51.28 63.2849585,52.1886207 63.1568122,52.4006897 C63.0303976,52.5955172 62.9161049,52.7782759 62.8191293,52.9403448 C62.4398854,53.5127586 62.1056659,53.9731034 61.5896171,54.5627586 C60.9315683,55.3403448 60.377422,55.7851724 59.8890805,56.0351724 C59.6760805,56.1455172 59.0613244,56.3610345 58.7998366,56.3075862 C60.1661537,54.2593103 61.0597146,52.2627586 60.8796171,50.8558621 C60.7722512,49.9713793 60.2544707,49.3748276 59.6795439,49.0317241 C59.3920805,48.8644828 58.9903244,48.7231034 58.7894463,48.8955172 C58.6474463,49.0575862 58.9210561,49.167931 59.0803732,49.7937931 C59.1531049,50.0817241 59.3158854,50.7093103 59.2466171,51.1489655 C58.8898854,51.4265517 58.2023976,52.0834483 57.7937146,53.1006897 C57.2984463,54.2593103 57.2880561,55.1765517 57.3781049,55.7558621 C56.1018366,58.1489655 54.2073488,60.2713793 52.9483976,60.5937931 C52.3163244,60.7558621 51.9855683,60.4127586 51.8972512,59.8265517 C51.7188854,58.6610345 52.6921049,56.0437931 53.9302756,53.9627586 C55.1372756,52.017931 56.0308366,50.7541379 57.2464951,49.78 C57.6430561,49.4317241 57.8162268,49.3851724 57.7885195,49.2748276 C57.7279098,49.0472414 57.2724707,49.1627586 56.8689829,49.2644828 C55.566739,49.6575862 53.9545195,50.7386207 52.5154707,52.017931 C51.4712512,52.9506897 50.8010805,53.6713793 50.1897878,54.3713793 C49.7170317,54.9162069 49.0780317,55.7455172 48.7784463,56.2472414 C48.7490073,56.3006897 48.7178366,56.3575862 48.6849341,56.4110345 C47.7446171,57.7524138 46.8441293,58.9541379 45.7185195,60.3110345 C44.0543488,62.3782759 42.3555439,64.0868966 41.1745195,65.1765517 L41.1589341,65.1196552 C42.3053244,62.4524138 42.7417146,61.3110345 43.3945683,59.8127586 C44.1011049,58.0489655 44.5807878,56.8334483 45.2890561,55.317931 C45.6873488,54.4886207 45.3998854,54.3196552 44.3106415,54.5937931 C43.4517146,54.8162069 42.698422,55.9162069 42.0161293,57.0644828 C39.6315683,61.3110345 37.1552268,64.5006897 34.107422,65.217931 C32.3151049,65.6110345 30.9349341,64.5041379 30.5903244,62.4696552 C30.3374951,60.8627586 30.4777634,59.1351724 30.8899098,57.3403448 C33.7368366,56.3472414 36.5006415,55.0144828 38.8886659,53.4075862 C41.7477146,52.442069 44.8890317,50.8506897 47.3186171,48.7231034 C50.6833244,45.6782759 53.0713488,41.6731034 52.2643732,38.53 C51.5890073,35.9144828 48.8962024,35.867931 46.887422,36.3782759 C46.3073,36.53 45.638861,36.7731034 44.9184707,37.0903448 C42.0559585,32.3472414 35.4010073,30.6058621 29.1045195,31.917931 C21.5750561,33.4937931 14.670739,38.6213793 16.0041537,44.7541379 C16.5738854,47.3748276 18.7454463,48.4162069 20.2018122,48.5713793 C21.3672512,48.6989655 22.4374463,48.3748276 22.3872268,48.1524138 C22.3370073,47.9248276 21.7742024,48.38 20.2122024,48.1937931 C18.8458854,48.0162069 16.9946902,46.9006897 16.4924951,44.6024138 C15.268178,38.9644828 23.1283976,35.192069 29.4023732,33.9334483 C34.8018366,32.8472414 41.4065683,33.3989655 44.3037146,37.367931 C42.698422,38.1524138 40.8610805,39.2989655 38.9873732,40.7627586 C36.5820317,39.2472414 33.7420317,39.1213793 31.1669829,39.7782759 C26.4705927,40.9748276 22.9050073,44.6782759 24.0652512,49.1834483 C24.6505683,51.4610345 26.4653976,53.067931 28.6075195,53.7955172 C28.0083488,55.0886207 27.575422,56.3782759 27.2827634,57.6041379 C26.8792756,57.7041379 26.4705927,57.8058621 26.0705683,57.8868966 C15.3755439,60.1972414 3.51161707,57.1282759 1.35564146,47.2041379 C-1.59691951,33.6213793 14.3053488,24.2903448 32.0259098,20.4731034 C39.3683488,18.892069 46.7488854,18.1541379 54.0203244,17.7644828 C50.8339829,21.0024138 49.1611537,24.6696552 49.8780805,27.9627586 C50.437422,30.5351724 52.383861,31.8627586 53.774422,31.7058621 C54.2835439,31.6455172 54.4982756,31.5489655 54.4619098,31.367931 C54.430739,31.2317241 54.1328854,31.3937931 53.7536415,31.3834483 C52.5708854,31.3989655 50.8842024,30.2006897 50.3750805,27.8575862 C49.6616171,24.5593103 51.431422,20.9213793 54.7285927,17.7541379 C69.3216902,17.0231034 83.3589098,17.442069 95.2366902,15.1231034 C103.192154,13.5472414 113.12869,10.1282759 111.9113,4.53517241 C110.506885,-1.91482759 96.7259585,-0.0751724138 86.9331537,2.03 C76.1498122,4.35413793 62.767178,9.78862069 55.8853732,15.6644828 C48.1394463,15.8248276 39.8289829,16.4317241 31.2206659,18.2851724 C13.2282268,22.1644828 -2.29479756,33.2524138 0.765129268,47.33 L0.775519512,47.3748276 C3.0198122,57.7041379 15.0863488,61.0593103 26.2368122,58.6541379 C26.527739,58.5937931 26.8221293,58.5231034 27.1130561,58.4593103 C26.7667146,60.3713793 26.7961537,62.1162069 27.2429341,63.4437931 C28.2767634,66.5213793 31.0630805,67.1472414 34.2546171,66.03 C36.6703488,65.2282759 39.1120561,62.8472414 40.8576171,59.9075862 C40.8576171,59.9075862 38.4973,65.917931 37.7907634,67.6765517 C33.9810073,71.6265517 32.7272512,72.4334483 28.4343488,76.8662069 C25.8419829,79.5972414 21.3118366,84.7593103 21.8746415,88.1403448 C22.1846171,90.0627586 23.6912024,90.2317241 24.8964707,89.9213793 C28.0447146,89.1196552 32.858861,83.6368966 36.0348122,77.2386207 C38.6012024,72.03 39.0375927,70.8851724 40.7779585,66.2472414 C42.4023,64.742069 44.5011293,62.6851724 46.3938854,60.3213793 C47.4155927,59.0886207 48.6018122,57.5093103 49.1265195,56.7110345 C49.2996902,56.442069 49.4209098,56.2368966 49.5057634,56.067931 C49.6650805,55.8317241 49.8088122,55.6110345 50.0062268,55.33 L50.0772268,55.3713793 C49.2823732,56.792069 48.9481537,58.3317241 49.1853976,59.4903448 C49.5542512,61.1558621 50.8616902,61.7351724 52.638422,61.2817241 C54.9831537,60.6817241 57.2516902,58.3472414 58.4483,56.8265517 C58.8483244,56.9644828 59.5375439,56.792069 60.0206902,56.5437931 C60.566178,56.2868966 61.1809341,55.8265517 61.9342268,54.9644828 C62.5437878,54.2593103 62.9871049,53.6006897 63.3871293,53.0110345 C63.4685195,52.8851724 63.5429829,52.7748276 63.6087878,52.6644828 L63.6590073,52.6972414 C62.9368854,54.1593103 62.7152268,55.1886207 62.8191293,56.0748276 C63.0598366,57.9575862 64.5092756,58.1351724 65.7543732,57.7558621 C67.8999585,57.0851724 70.050739,54.5334483 71.2023244,52.8386207 L71.2750561,52.8851724 C70.9217878,53.6437931 70.7832512,54.53 71.003178,55.1455172 C71.2369585,55.8127586 71.8828854,56.1955172 72.9721293,55.9162069 C74.861422,55.4386207 76.3974463,53.5834483 77.3083244,52.38 C78.1793732,51.2489655 79.2443732,49.6989655 79.8123732,48.8248276 C80.2972512,48.092069 80.5085195,47.7334483 80.2920561,47.6075862 C80.0773244,47.4817241 79.8625927,47.8403448 79.594178,48.2127586 C79.1110317,48.9455172 78.3975683,49.9765517 77.4485927,51.2489655 C76.7195439,52.2231034 75.8242512,53.242069 75.3220561,53.6731034 C74.9237634,54.0248276 74.4094463,54.3972414 74.0648366,54.2403448 C73.7912268,54.1282759 73.6734707,53.6713793 73.8985927,52.8851724 C74.180861,51.8403448 75.7792268,47.8506897 76.967178,45.117931 C79.2045439,40.0506897 80.5518122,37.217931 81.8834951,34.5696552 C83.3727634,31.5748276 85.4283,27.7110345 86.5954707,25.8317241 C86.4794463,25.6196552 86.2058366,25.5093103 85.6343732,25.6506897" id="Fill-17" fill="#1A1918"></path>
                        <path d="M97.0840756,46.0012069 C95.9047829,47.8253448 94.0501244,49.6322414 92.9626122,49.9115517 C92.5660512,50.0115517 92.2318317,49.9115517 92.0707829,49.527069 C91.7677341,48.815 92.3582463,47.0822414 94.1245878,44.202931 C95.6536854,41.627069 97.3213195,39.5667241 98.4677098,39.2736207 C99.0963195,39.1115517 99.6296854,39.2787931 99.7612951,40.0356897 C99.9379293,40.9598276 98.507539,43.9408621 97.0840756,46.0012069 M137.819027,31.1253448 C138.68488,29.7460345 139.400076,28.9632759 139.912661,28.827069 C140.430441,28.6960345 140.731759,28.9236207 140.80449,29.452931 C140.95688,30.2667241 140.404466,31.6805172 139.22171,33.015 C138.222515,34.1201724 136.837149,35.1408621 135.766954,35.7167241 C136.15832,34.402931 137.126344,32.2167241 137.819027,31.1253448 M160.639466,27.3718966 C160.44032,27.3012069 160.29832,27.4632759 159.986612,27.9081034 C159.503466,28.6356897 159.003002,29.3115517 158.315515,29.4839655 C157.456588,29.7063793 156.592466,29.1960345 156.654807,27.5391379 C156.692905,26.4943103 157.531051,25.2512069 158.157929,24.3615517 C158.654929,23.6856897 158.540637,23.4787931 158.353612,23.4632759 C158.041905,23.4218966 157.293807,23.6098276 157.023661,23.7408621 C156.692905,23.8874138 156.277295,24.1701724 155.565563,24.9581034 C154.755124,25.8374138 154.027807,26.8115517 153.303954,27.7874138 C152.117734,29.3632759 151.097759,31.0805172 150.626734,31.8684483 L150.486466,31.7874138 C150.78432,31.0443103 151.321149,29.8115517 151.619002,29.065 C152.098685,27.852931 152.3671,26.9943103 152.190466,26.3063793 C152.029417,25.6805172 151.52549,25.1391379 150.436246,25.4184483 C149.234441,25.7253448 148.264685,26.7012069 147.024783,28.2925862 C146.20049,29.352931 145.244588,30.8736207 144.721612,31.6753448 C144.640222,31.802931 144.56749,31.9132759 144.498222,32.0201724 C143.696441,33.1856897 142.73188,34.4236207 141.902393,35.3684483 C139.822612,37.7218966 137.97488,38.6167241 137.23371,38.8081034 C136.37132,39.0253448 135.796393,38.6874138 135.578198,37.8339655 C135.48988,37.4891379 135.4691,36.9494828 135.583393,36.4339655 C136.814637,35.7581034 138.58271,34.5753448 140.042539,33.352931 C141.540466,32.0598276 143.078222,30.452931 142.811539,28.9425862 C142.676466,28.1856897 142.013222,27.502931 140.756002,27.8218966 L140.695393,27.8374138 C139.15071,28.2356897 137.626807,29.4132759 136.186027,30.6908621 C135.238783,31.5391379 134.331368,32.4994828 133.81532,33.115 C133.119173,33.965 132.705295,34.4943103 132.137295,35.3684483 C132.038588,35.5356897 131.946807,35.6960345 131.915637,35.8287931 C131.489637,36.4494828 131.001295,37.1408621 130.540661,37.7218966 C129.486051,39.0805172 128.843588,39.6718966 128.242685,40.1874138 C127.849588,40.5356897 127.278124,40.9201724 126.924856,40.7684483 C126.65471,40.6512069 126.609685,40.2374138 126.838271,39.4546552 C127.033954,38.7925862 127.440905,37.777069 128.079905,36.4598276 C128.705051,35.0856897 129.572637,33.4684483 129.479124,32.402931 C129.340588,31.3977586 128.5111,31.0098276 127.307563,31.3115517 C125.58971,31.7512069 123.478759,33.9891379 121.856149,35.9839655 C120.231807,37.9753448 118.766783,40.1115517 117.687929,41.6012069 L117.613466,41.5563793 C118.477588,39.2115517 120.777295,33.2167241 124.081393,26.3615517 C125.755954,22.8977586 129.371759,16.0874138 130.182198,14.7236207 C130.050588,14.4512069 129.794295,14.3960345 129.217637,14.5425862 C128.474734,14.7339655 127.889417,15.3046552 127.406271,16.0374138 C125.532563,18.9477586 123.769685,22.0684483 122.337563,24.8012069 C121.118441,27.1805172 119.812734,29.9443103 118.808344,32.2012069 C117.76932,34.4943103 116.71471,36.9943103 116.061856,38.5960345 C115.937173,38.727069 115.809027,38.915 115.691271,39.0701724 C115.15271,39.8184483 114.413271,40.9753448 113.588978,42.0408621 C112.859929,43.0167241 112.04949,43.8891379 111.448588,44.4046552 C111.052027,44.7477586 110.464978,45.0874138 110.075344,44.9960345 C109.561027,44.8891379 109.528124,44.0460345 109.709954,43.3339655 C110.224271,41.077069 111.424344,37.6667241 112.219198,36.0098276 C113.521441,35.6167241 114.437515,35.3839655 115.696466,35.065 C116.158832,34.9443103 116.687002,34.8736207 116.655832,34.515 C116.640246,34.2115517 116.224637,34.2563793 115.767466,34.3787931 C114.849661,34.6115517 113.815832,34.8736207 112.51532,35.2667241 C113.282466,33.4891379 113.989002,31.9736207 114.922393,30.1563793 C115.86271,28.3374138 116.9381,26.3615517 117.466271,25.5598276 C117.3641,25.402931 117.092222,25.2908621 116.519027,25.4374138 C115.31549,25.7408621 114.279929,27.402931 113.50932,28.6960345 C112.51532,30.2822414 110.871929,33.3736207 109.654539,35.9943103 C109.42249,36.0546552 108.79388,36.2115517 108.0631,36.4598276 C107.162612,36.752931 106.605002,36.9546552 106.605002,37.1977586 C106.62232,37.4994828 106.909783,37.4236207 107.309807,37.3236207 C107.995563,37.1460345 108.61032,36.9287931 109.358417,36.7374138 C108.568759,37.9046552 107.472588,39.5253448 106.355637,41.177069 C106.293295,41.2581034 106.232685,41.3494828 106.163417,41.4391379 C105.682002,42.1718966 104.968539,43.202931 104.017832,44.4805172 C103.292246,45.4563793 102.39349,46.4753448 101.893027,46.8994828 C101.494734,47.2494828 100.978685,47.6218966 100.635807,47.4667241 C100.362198,47.3546552 100.246173,46.8994828 100.469563,46.1115517 C100.7501,45.0667241 101.2471,43.9046552 101.757954,42.8081034 C102.577051,41.0201724 103.470612,39.2736207 103.993588,38.227069 C104.393612,37.3943103 104.203124,37.1408621 103.016905,37.5046552 C102.097368,37.7374138 101.3181,38.727069 100.308515,40.5046552 C100.40549,39.4443103 99.7387829,38.5253448 98.5491,38.6408621 C96.5697585,38.7822414 93.6604902,40.9805172 92.1227341,42.8339655 C89.8420756,45.5977586 89.2082707,47.8908621 89.3918317,49.2994828 C89.7000756,51.2236207 91.0767829,51.3598276 92.3253439,50.9822414 C94.472661,50.315 96.619978,47.7598276 97.7732951,46.0667241 L97.8425634,46.1115517 C97.4892951,46.8701724 97.354222,47.7598276 97.5741488,48.3701724 C97.8044659,49.0374138 98.4521244,49.4201724 99.5396366,49.1425862 C101.430661,48.6632759 102.968417,46.815 103.881027,45.6063793 C104.748612,44.4753448 105.813612,42.9305172 106.385076,42.0512069 C106.516685,41.8598276 106.62232,41.6874138 106.712368,41.5408621 C107.176466,40.8339655 107.654417,40.1115517 108.295149,39.2581034 C107.19032,41.8443103 106.402393,44.2339655 106.655222,45.6874138 C106.814539,46.5563793 107.463929,47.1839655 108.781759,46.8443103 C110.958515,46.2943103 112.622685,44.2287931 113.44871,43.1667241 C114.028832,42.4408621 114.718051,41.465 115.277393,40.6322414 C114.78732,42.015 114.369978,43.2891379 114.11888,44.3339655 C113.921466,45.2339655 114.293783,45.2581034 115.093832,45.0563793 C115.727637,44.8943103 116.037612,44.6977586 116.453222,44.1632759 C118.477588,41.5822414 119.511417,39.9201724 121.534051,37.3391379 C122.997344,35.4494828 124.355002,34.0701724 125.250295,33.2925862 C125.75249,32.8632759 126.325685,32.4736207 126.65471,32.5753448 C126.987198,32.6718966 126.95949,33.0391379 126.803637,33.3891379 C126.336076,34.4132759 125.710929,35.5494828 125.116954,36.7925862 C124.365393,38.3787931 123.468368,40.127069 123.736783,41.3994828 C123.929002,42.3787931 124.685759,42.7322414 125.837344,42.4408621 C127.612344,41.9908621 129.479124,39.9960345 130.402124,38.8494828 C131.370149,37.627069 132.693173,35.6512069 133.072417,35.0046552 C133.216149,34.7667241 133.316588,34.5856897 133.365076,34.4494828 L133.437807,34.4891379 C132.641222,36.1460345 132.391856,37.3081034 132.627368,38.4598276 C132.951198,39.9598276 134.13049,40.5098276 136.2501,39.9701724 C138.196539,39.4753448 140.123929,38.1925862 142.12232,35.9839655 C142.97432,35.0356897 144.427222,33.0856897 144.995222,32.2115517 C145.081807,32.0960345 145.142417,31.9891379 145.199563,31.8839655 C145.760637,31.0339655 146.370198,30.1460345 146.887978,29.4236207 C147.428271,28.6753448 148.126149,27.827069 148.730515,27.3115517 C149.024905,27.0546552 149.340076,26.852931 149.570393,27.0339655 C149.731441,27.1753448 149.688149,27.4891379 149.418002,28.1046552 C148.993734,29.065 148.297588,30.6408621 147.887173,31.6563793 C147.279344,33.0856897 146.56588,35.277069 146.354612,36.1218966 C146.096588,37.0356897 146.529515,37.0460345 147.331295,36.8425862 C147.963368,36.6822414 148.389368,36.4494828 148.688954,35.9494828 C150.36871,33.2115517 151.7991,30.9632759 153.092685,29.115 C153.449417,28.5994828 154.379344,27.452931 155.072027,26.6046552 C154.867685,27.9339655 155.172466,29.1305172 155.735271,29.6563793 C156.455661,30.3218966 157.389051,30.3925862 158.464441,30.0546552 C159.252368,29.7925862 159.908685,29.0184483 160.291393,28.3718966 C160.672368,27.7305172 160.788393,27.4581034 160.639466,27.3718966" id="Fill-19" fill="#1A1918"></path>
                        <path d="M71.7730951,53.1924138 C70.5920707,55.0113793 68.7391439,56.8251724 67.6499,57.0993103 C67.2498756,57.1993103 66.9156561,57.1027586 66.7598024,56.7182759 C66.4532902,56.007931 67.0455341,54.2734483 68.8101439,51.3941379 C70.3427049,48.8165517 72.0086073,46.7510345 73.1532659,46.457931 C73.7836073,46.2958621 74.3135098,46.4682759 74.4451195,47.2268966 C74.6252171,48.1510345 73.1930951,51.1251724 71.7730951,53.1924138 M35.0453146,78.1648276 C33.3898024,82.1768966 31.2442171,85.6993103 29.6042902,87.3889655 C28.3920951,88.6113793 27.2907293,89.3148276 26.3486805,89.4389655 C25.5157293,89.5268966 24.8975098,89.257931 24.6481439,88.2872414 C23.9173634,85.682069 27.2872659,80.7510345 29.8224854,78.0406897 C34.2140951,73.2751724 35.8851927,72.182069 38.6507293,69.1717241 C37.6619244,71.9734483 36.4445341,74.832069 35.0453146,78.1648276 M33.0192171,54.87 C34.2902902,54.9768966 36.0739488,54.8562069 37.7381195,54.5027586 C36.0462415,55.4217241 34.2296805,56.22 32.3698268,56.8768966 C32.5533878,56.2096552 32.7715829,55.5424138 33.0192171,54.87 M25.8932415,49.4493103 C24.8369,45.3475862 28.132339,42.0182759 32.1966561,40.982069 C34.6019976,40.3665517 37.0575585,40.6544828 39.3867049,41.882069 C37.5303146,43.4527586 35.7085585,45.3717241 33.9560707,47.5803448 C32.4304366,49.4837931 30.9117293,52.1251724 30.103022,53.7286207 C28.1496561,53.0113793 26.4369976,51.5596552 25.8932415,49.4493103 M40.4828756,42.5734483 C41.3591195,43.1441379 42.2526805,44.007931 42.8726317,45.0027586 C43.4666073,45.8872414 43.5410707,46.4131034 43.6986561,46.3113793 C43.8129488,46.282069 43.7956317,45.7458621 43.2726561,44.6596552 C42.8812902,43.8475862 42.0292902,42.67 41.1634366,41.9165517 C42.8206805,40.2855172 44.4398268,39.1182759 45.9325585,38.3510345 C46.3325829,39.0286207 46.6408268,39.7855172 46.8261195,40.6441379 C47.9586561,45.8475862 44.5350707,50.2665517 39.4836805,53.4751724 C39.0507537,53.6165517 38.6195585,53.7406897 38.1900951,53.8562069 C36.5865341,54.2631034 34.8686805,54.4613793 33.2633878,54.3803448 C33.8971927,52.5751724 34.7613146,50.7165517 35.7847537,48.9993103 C37.3173146,46.4234483 38.9087537,44.3113793 40.4828756,42.5734483 M48.3067293,37.4217241 C50.0245829,36.982069 52.2619488,36.9010345 52.8022415,39.007931 C53.408339,41.3458621 50.8194366,45.7768966 47.6971683,48.5751724 C45.8615585,50.2613793 43.923778,51.5441379 41.9634854,52.4786207 C45.9464122,49.2562069 48.3742659,45.1458621 47.3698756,40.5286207 C47.1776561,39.6441379 46.8832659,38.8303448 46.4988268,38.0786207 C47.1291683,37.7906897 47.7352659,37.5682759 48.3067293,37.4217241 M88.1723634,3.01827586 L88.2208512,3.00793103 C97.7816073,0.947586207 111.358193,-1.17482759 112.72451,5.09931034 C113.851851,10.2872414 103.948217,13.6010345 96.3858512,15.0406897 C84.9063634,17.232069 72.1609976,15.7717241 57.9332902,16.0044828 C64.7025341,10.4837931 77.7509488,5.26655172 88.1723634,3.01827586 M86.8909,26.0665517 C86.0873878,26.2734483 85.4882171,26.7941379 85.0171927,27.582069 C83.140022,30.4872414 81.4239,33.5424138 80.0246805,36.3855172 C77.9691439,40.4924138 76.1681683,44.4182759 75.0529488,47.4337931 L74.992339,47.4475862 C75.0027293,46.5337931 74.3671927,45.7251724 73.2363878,45.832069 C71.5739488,46.0131034 69.6621439,47.3527586 67.9183146,48.8872414 C66.9191195,49.7510345 66.1658268,50.6096552 65.6948024,51.1562069 C65.2255098,51.6958621 64.5414854,52.6062069 64.413339,52.8182759 C64.2869244,53.0131034 64.1726317,53.1958621 64.0756561,53.357931 C63.6964122,53.9303448 63.3621927,54.3906897 62.8461439,54.9803448 C62.1880951,55.757931 61.6339488,56.2027586 61.1456073,56.4527586 C60.9326073,56.5631034 60.3178512,56.7786207 60.0563634,56.7251724 C61.4226805,54.6768966 62.3162415,52.6803448 62.1361439,51.2717241 C62.028778,50.3889655 61.5109976,49.7924138 60.9360707,49.4493103 C60.6486073,49.282069 60.2468512,49.1406897 60.0459732,49.3131034 C59.9039732,49.4734483 60.1775829,49.5855172 60.3369,50.2113793 C60.4096317,50.4993103 60.5724122,51.1251724 60.5031439,51.5648276 C60.1464122,51.8424138 59.4589244,52.4993103 59.0502415,53.5182759 C58.5549732,54.6768966 58.5445829,55.5941379 58.6346317,56.1734483 C57.3583634,58.5665517 55.4638756,60.6889655 54.2049244,61.0113793 C53.5728512,61.1734483 53.2420951,60.8303448 53.153778,60.2441379 C52.9754122,59.0786207 53.9486317,56.4613793 55.1868024,54.3803448 C56.3938024,52.4337931 57.2873634,51.1717241 58.503022,50.1958621 C58.8995829,49.8475862 59.0727537,49.8027586 59.0450463,49.6906897 C58.9844366,49.4631034 58.5289976,49.5803448 58.1255098,49.6803448 C56.8232659,50.0751724 55.2110463,51.1562069 53.7719976,52.4337931 C52.727778,53.3682759 52.0576073,54.0889655 51.4463146,54.7889655 C50.9735585,55.3337931 50.3345585,56.1631034 50.0349732,56.6648276 C50.0055341,56.7182759 49.9743634,56.7751724 49.941461,56.8286207 C49.0011439,58.17 48.1006561,59.3717241 46.9750463,60.7286207 C45.3108756,62.7958621 43.6120707,64.5044828 42.4310463,65.5941379 L42.415461,65.5372414 C43.5618512,62.87 43.9982415,61.7286207 44.6510951,60.2303448 C45.3576317,58.4665517 45.8373146,57.2510345 46.5455829,55.7355172 C46.9438756,54.9062069 46.6564122,54.7372414 45.5671683,55.0113793 C44.7082415,55.2337931 43.9549488,56.3337931 43.2726561,57.482069 C40.8880951,61.7286207 38.4117537,64.9182759 35.3639488,65.6355172 C33.5716317,66.0286207 32.191461,64.9217241 31.8468512,62.8872414 C31.594022,61.2803448 31.7342902,59.5527586 32.1464366,57.757931 C34.9933634,56.7648276 37.7571683,55.432069 40.1451927,53.8251724 C43.0042415,52.8596552 46.1455585,51.2665517 48.5751439,49.1406897 C51.9398512,46.0941379 54.3278756,42.0889655 53.5209,38.9475862 C52.8455341,36.3303448 50.1527293,36.2855172 48.1439488,36.7958621 C47.5638268,36.9475862 46.8953878,37.1889655 46.1749976,37.507931 C43.3124854,32.7648276 36.6575341,31.0217241 30.3610463,32.3355172 C22.8315829,33.9113793 15.9272659,39.0389655 17.2606805,45.17 C17.8304122,47.7924138 20.0019732,48.832069 21.458339,48.9889655 C22.623778,49.1148276 23.6939732,48.7924138 23.6437537,48.57 C23.5935341,48.3424138 23.0307293,48.7975862 21.4687293,48.6096552 C20.1024122,48.4337931 18.2512171,47.3165517 17.749022,45.0182759 C16.5247049,39.382069 24.3849244,35.607931 30.6589,34.3510345 C36.0583634,33.2648276 42.6630951,33.8148276 45.5602415,37.7855172 C43.9549488,38.5682759 42.1176073,39.7148276 40.2439,41.1803448 C37.8385585,39.6648276 34.9985585,39.5389655 32.4235098,40.1941379 C27.7271195,41.3924138 24.1615341,45.0941379 25.321778,49.6010345 C25.9070951,51.8786207 27.7219244,53.4855172 29.8640463,54.2131034 C29.2648756,55.5062069 28.8319488,56.7958621 28.5392902,58.0217241 C28.1358024,58.1217241 27.7271195,58.2234483 27.3270951,58.3044828 C16.6320707,60.6148276 4.7681439,57.5458621 2.61216829,47.62 C-0.340392683,34.0372414 15.5618756,24.707931 33.2824366,20.8889655 C40.6248756,19.307931 48.0054122,18.57 55.2768512,18.182069 C52.0905098,21.42 50.4176805,25.0872414 51.1346073,28.3803448 C51.6939488,30.9510345 53.6403878,32.2803448 55.0309488,32.1234483 C55.5400707,32.0631034 55.7548024,31.9665517 55.7184366,31.7837931 C55.6872659,31.6475862 55.3894122,31.8096552 55.0101683,31.7993103 C53.8274122,31.8148276 52.1407293,30.6182759 51.6316073,28.2734483 C50.9181439,24.9751724 52.6879488,21.3389655 55.9851195,18.1717241 C70.5782171,17.4389655 84.6154366,17.857931 96.4932171,15.5406897 C104.44868,13.9648276 114.385217,10.5441379 113.167827,4.95275862 C111.763412,-1.49724138 97.9824854,0.340689655 88.1896805,2.44758621 C77.406339,4.77172414 64.0237049,10.2062069 57.1419,16.0803448 C49.3959732,16.2424138 41.0855098,16.8475862 32.4771927,18.7027586 C14.4847537,22.582069 -1.03827073,33.6682759 2.0216561,47.7458621 L2.03204634,47.7924138 C4.27633902,58.1217241 16.3428756,61.4768966 27.493339,59.0717241 C27.7842659,59.0113793 28.0786561,58.9406897 28.3695829,58.8768966 C28.0232415,60.7889655 28.0526805,62.5337931 28.499461,63.8613793 C29.5332902,66.9389655 32.3196073,67.5648276 35.5111439,66.4475862 C37.9268756,65.6458621 40.3685829,63.2648276 42.1141439,60.3251724 C42.1141439,60.3251724 39.7538268,66.3355172 39.0472902,68.0941379 C35.2375341,72.0441379 33.983778,72.8510345 29.6908756,77.2837931 C27.0985098,80.0148276 22.5683634,85.1768966 23.1311683,88.557931 C23.4411439,90.4803448 24.9477293,90.6493103 26.1529976,90.3389655 C29.3012415,89.5372414 34.1153878,84.0544828 37.291339,77.6562069 C39.8577293,72.4475862 40.2941195,71.3027586 42.0344854,66.6648276 C43.6588268,65.1596552 45.7576561,63.1027586 47.6504122,60.7389655 C48.6721195,59.5062069 49.858339,57.9268966 50.3830463,57.1286207 C50.5562171,56.8596552 50.6774366,56.6544828 50.7622902,56.4855172 C50.9216073,56.2493103 51.065339,56.0286207 51.2627537,55.7475862 L51.3337537,55.7889655 C50.5389,57.2096552 50.2046805,58.7493103 50.4419244,59.907931 C50.810778,61.5734483 52.1182171,62.1527586 53.8949488,61.6993103 C56.2396805,61.0993103 58.5082171,58.7648276 59.7048268,57.2441379 C60.1048512,57.382069 60.7940707,57.2096552 61.2772171,56.9613793 C61.8227049,56.7044828 62.437461,56.2441379 63.1907537,55.382069 C63.8003146,54.6768966 64.2436317,54.0182759 64.6436561,53.4286207 C64.7250463,53.3027586 64.7995098,53.1924138 64.8653146,53.082069 L64.9155341,53.1148276 C64.1934122,54.5768966 63.9717537,55.6062069 64.0756561,56.4924138 C64.3163634,58.3751724 65.7658024,58.5527586 67.0109,58.1734483 C69.1564854,57.5027586 71.3072659,54.9510345 72.4588512,53.2562069 L72.5315829,53.3027586 C72.1783146,54.0613793 72.039778,54.9475862 72.2597049,55.5631034 C72.4934854,56.2303448 73.1394122,56.6131034 74.2286561,56.3337931 C76.1179488,55.8562069 77.6539732,54.0010345 78.5648512,52.7975862 C79.4359,51.6665517 80.5009,50.1148276 81.0689,49.2406897 C81.553778,48.5096552 81.7650463,48.1510345 81.5485829,48.0234483 C81.3338512,47.8975862 81.1191195,48.2562069 80.8507049,48.6303448 C80.3675585,49.3631034 79.6540951,50.3924138 78.7051195,51.6665517 C77.9760707,52.6406897 77.080778,53.6596552 76.5785829,54.0906897 C76.1802902,54.4424138 75.6659732,54.8148276 75.3213634,54.657931 C75.0477537,54.5458621 74.9299976,54.0889655 75.1551195,53.3027586 C75.4373878,52.257931 77.0357537,48.2665517 78.2237049,45.5337931 C80.4610707,40.4682759 81.808339,37.6337931 83.140022,34.9872414 C84.6292902,31.9924138 86.6848268,28.1268966 87.8519976,26.2493103 C87.7359732,26.0372414 87.4623634,25.9251724 86.8909,26.0665517" id="Fill-21" fill="#F3C48C"></path>
                        <path d="M98.3406024,46.417931 C97.1613098,48.242069 95.3066512,50.0489655 94.219139,50.3282759 C93.822578,50.4282759 93.4883585,50.3282759 93.3273098,49.9437931 C93.024261,49.2317241 93.6147732,47.4989655 95.3811146,44.6196552 C96.9102122,42.0437931 98.5778463,39.9834483 99.7242366,39.6903448 C100.352846,39.5282759 100.886212,39.6955172 101.017822,40.4524138 C101.194456,41.3765517 99.7640659,44.3575862 98.3406024,46.417931 M139.075554,31.542069 C139.941407,30.1627586 140.656602,29.38 141.169188,29.2437931 C141.686968,29.1127586 141.988285,29.3403448 142.061017,29.8696552 C142.213407,30.6834483 141.660993,32.0972414 140.478237,33.4317241 C139.479041,34.5368966 138.093676,35.5575862 137.02348,36.1334483 C137.414846,34.8196552 138.382871,32.6334483 139.075554,31.542069 M161.895993,27.7886207 C161.696846,27.717931 161.554846,27.88 161.243139,28.3248276 C160.759993,29.0524138 160.259529,29.7282759 159.572041,29.9006897 C158.713115,30.1231034 157.848993,29.6127586 157.911334,27.9558621 C157.949432,26.9110345 158.787578,25.667931 159.414456,24.7782759 C159.911456,24.1024138 159.797163,23.8955172 159.610139,23.88 C159.298432,23.8386207 158.550334,24.0265517 158.280188,24.1575862 C157.949432,24.3041379 157.533822,24.5868966 156.82209,25.3748276 C156.011651,26.2541379 155.284334,27.2282759 154.56048,28.2041379 C153.374261,29.78 152.354285,31.4972414 151.883261,32.2851724 L151.742993,32.2041379 C152.040846,31.4610345 152.577676,30.2282759 152.875529,29.4817241 C153.355212,28.2696552 153.623627,27.4110345 153.446993,26.7231034 C153.285944,26.0972414 152.782017,25.5558621 151.692773,25.8351724 C150.490968,26.142069 149.521212,27.117931 148.28131,28.7093103 C147.457017,29.7696552 146.501115,31.2903448 145.978139,32.092069 C145.896749,32.2196552 145.824017,32.33 145.754749,32.4368966 C144.952968,33.6024138 143.988407,34.8403448 143.15892,35.7851724 C141.079139,38.1386207 139.231407,39.0334483 138.490237,39.2248276 C137.627846,39.442069 137.05292,39.1041379 136.834724,38.2506897 C136.746407,37.9058621 136.725627,37.3662069 136.83992,36.8506897 C138.071163,36.1748276 139.839237,34.992069 141.299066,33.7696552 C142.796993,32.4765517 144.334749,30.8696552 144.068066,29.3593103 C143.932993,28.6024138 143.269749,27.9196552 142.012529,28.2386207 L141.95192,28.2541379 C140.407237,28.6524138 138.883334,29.83 137.442554,31.1075862 C136.49531,31.9558621 135.587895,32.9162069 135.071846,33.5317241 C134.3757,34.3817241 133.961822,34.9110345 133.393822,35.7851724 C133.295115,35.9524138 133.203334,36.1127586 133.172163,36.2455172 C132.746163,36.8662069 132.257822,37.5575862 131.797188,38.1386207 C130.742578,39.4972414 130.100115,40.0886207 129.499212,40.6041379 C129.106115,40.9524138 128.534651,41.3368966 128.181383,41.1851724 C127.911237,41.067931 127.866212,40.6541379 128.094798,39.8713793 C128.29048,39.2093103 128.697432,38.1937931 129.336432,36.8765517 C129.961578,35.5024138 130.829163,33.8851724 130.735651,32.8196552 C130.597115,31.8144828 129.767627,31.4265517 128.56409,31.7282759 C126.846237,32.167931 124.735285,34.4058621 123.112676,36.4006897 C121.488334,38.392069 120.02331,40.5282759 118.944456,42.017931 L118.869993,41.9731034 C119.734115,39.6282759 122.033822,33.6334483 125.33792,26.7782759 C127.01248,23.3144828 130.628285,16.5041379 131.438724,15.1403448 C131.307115,14.867931 131.050822,14.8127586 130.474163,14.9593103 C129.731261,15.1506897 129.145944,15.7213793 128.662798,16.4541379 C126.78909,19.3644828 125.026212,22.4851724 123.59409,25.217931 C122.374968,27.5972414 121.069261,30.3610345 120.064871,32.617931 C119.025846,34.9110345 117.971237,37.4110345 117.318383,39.0127586 C117.1937,39.1437931 117.065554,39.3317241 116.947798,39.4868966 C116.409237,40.2351724 115.669798,41.392069 114.845505,42.4575862 C114.116456,43.4334483 113.306017,44.3058621 112.705115,44.8213793 C112.308554,45.1644828 111.721505,45.5041379 111.331871,45.4127586 C110.817554,45.3058621 110.784651,44.4627586 110.96648,43.7506897 C111.480798,41.4937931 112.680871,38.0834483 113.475724,36.4265517 C114.777968,36.0334483 115.694041,35.8006897 116.952993,35.4817241 C117.415359,35.3610345 117.943529,35.2903448 117.912359,34.9317241 C117.896773,34.6282759 117.481163,34.6731034 117.023993,34.7955172 C116.106188,35.0282759 115.072359,35.2903448 113.771846,35.6834483 C114.538993,33.9058621 115.245529,32.3903448 116.17892,30.5731034 C117.119237,28.7541379 118.194627,26.7782759 118.722798,25.9765517 C118.620627,25.8196552 118.348749,25.7075862 117.775554,25.8541379 C116.572017,26.1575862 115.536456,27.8196552 114.765846,29.1127586 C113.771846,30.6989655 112.128456,33.7903448 110.911066,36.4110345 C110.679017,36.4713793 110.050407,36.6282759 109.319627,36.8765517 C108.419139,37.1696552 107.861529,37.3713793 107.861529,37.6144828 C107.878846,37.9162069 108.16631,37.8403448 108.566334,37.7403448 C109.25209,37.5627586 109.866846,37.3455172 110.614944,37.1541379 C109.825285,38.3213793 108.729115,39.942069 107.612163,41.5937931 C107.549822,41.6748276 107.489212,41.7662069 107.419944,41.8558621 C106.938529,42.5886207 106.225066,43.6196552 105.274359,44.8972414 C104.548773,45.8731034 103.650017,46.892069 103.149554,47.3162069 C102.751261,47.6662069 102.235212,48.0386207 101.892334,47.8834483 C101.618724,47.7713793 101.5027,47.3162069 101.72609,46.5282759 C102.006627,45.4834483 102.503627,44.3213793 103.01448,43.2248276 C103.833578,41.4368966 104.727139,39.6903448 105.250115,38.6437931 C105.650139,37.8110345 105.459651,37.5575862 104.273432,37.9213793 C103.353895,38.1541379 102.574627,39.1437931 101.565041,40.9213793 C101.662017,39.8610345 100.99531,38.942069 99.8056268,39.0575862 C97.8262854,39.1989655 94.9170171,41.3972414 93.379261,43.2506897 C91.0986024,46.0144828 90.4647976,48.3075862 90.6483585,49.7162069 C90.9566024,51.6403448 92.3333098,51.7765517 93.5818707,51.3989655 C95.7291878,50.7317241 97.8765049,48.1765517 99.029822,46.4834483 L99.0990902,46.5282759 C98.745822,47.2868966 98.6107488,48.1765517 98.8306756,48.7868966 C99.0609927,49.4541379 99.7086512,49.8368966 100.796163,49.5593103 C102.687188,49.08 104.224944,47.2317241 105.137554,46.0231034 C106.005139,44.892069 107.070139,43.3472414 107.641602,42.467931 C107.773212,42.2765517 107.878846,42.1041379 107.968895,41.9575862 C108.432993,41.2506897 108.910944,40.5282759 109.551676,39.6748276 C108.446846,42.2610345 107.65892,44.6506897 107.911749,46.1041379 C108.071066,46.9731034 108.720456,47.6006897 110.038285,47.2610345 C112.215041,46.7110345 113.879212,44.6455172 114.705237,43.5834483 C115.285359,42.8575862 115.974578,41.8817241 116.53392,41.0489655 C116.043846,42.4317241 115.626505,43.7058621 115.375407,44.7506897 C115.177993,45.6506897 115.55031,45.6748276 116.350359,45.4731034 C116.984163,45.3110345 117.294139,45.1144828 117.709749,44.58 C119.734115,41.9989655 120.767944,40.3368966 122.790578,37.7558621 C124.253871,35.8662069 125.611529,34.4868966 126.506822,33.7093103 C127.009017,33.28 127.582212,32.8903448 127.911237,32.992069 C128.243724,33.0886207 128.216017,33.4558621 128.060163,33.8058621 C127.592602,34.83 126.967456,35.9662069 126.37348,37.2093103 C125.62192,38.7955172 124.724895,40.5437931 124.99331,41.8162069 C125.185529,42.7955172 125.942285,43.1489655 127.093871,42.8575862 C128.868871,42.4075862 130.735651,40.4127586 131.658651,39.2662069 C132.626676,38.0437931 133.9497,36.067931 134.328944,35.4213793 C134.472676,35.1834483 134.573115,35.0024138 134.621602,34.8662069 L134.694334,34.9058621 C133.897749,36.5627586 133.648383,37.7248276 133.883895,38.8765517 C134.207724,40.3765517 135.387017,40.9265517 137.506627,40.3868966 C139.453066,39.892069 141.380456,38.6093103 143.378846,36.4006897 C144.230846,35.4524138 145.683749,33.5024138 146.251749,32.6282759 C146.338334,32.5127586 146.398944,32.4058621 146.45609,32.3006897 C147.017163,31.4506897 147.626724,30.5627586 148.144505,29.8403448 C148.684798,29.092069 149.382676,28.2437931 149.987041,27.7282759 C150.281432,27.4713793 150.596602,27.2696552 150.82692,27.4506897 C150.987968,27.592069 150.944676,27.9058621 150.674529,28.5213793 C150.250261,29.4817241 149.554115,31.0575862 149.1437,32.0731034 C148.535871,33.5024138 147.822407,35.6937931 147.611139,36.5386207 C147.353115,37.4524138 147.786041,37.4627586 148.587822,37.2593103 C149.219895,37.0989655 149.645895,36.8662069 149.94548,36.3662069 C151.625237,33.6282759 153.055627,31.38 154.349212,29.5317241 C154.705944,29.0162069 155.635871,27.8696552 156.328554,27.0213793 C156.124212,28.3506897 156.428993,29.5472414 156.991798,30.0731034 C157.712188,30.7386207 158.645578,30.8093103 159.720968,30.4713793 C160.508895,30.2093103 161.165212,29.4351724 161.54792,28.7886207 C161.928895,28.1472414 162.04492,27.8748276 161.895993,27.7886207" id="Fill-23" fill="#F3C48C"></path>
                    </g>
                </g>
            </g>
        </g>
    </g>
</svg>