<?xml version="1.0" encoding="UTF-8" standalone="no"?>
<svg width="16px" height="16px" viewBox="0 0 16 16" version="1.1" xmlns="http://www.w3.org/2000/svg" xmlns:xlink="http://www.w3.org/1999/xlink" xmlns:sketch="http://www.bohemiancoding.com/sketch/ns">
    <!-- Generator: Sketch Beta 3.3.2 (12041) - http://www.bohemiancoding.com/sketch -->
    <title>social-instagram-outline</title>
    <desc>Created with Sketch Beta.</desc>
    <defs></defs>
    <g id="Page-1" stroke="none" stroke-width="1" fill="none" fill-rule="evenodd" sketch:type="MSPage">
        <g id="godfathers-v1" sketch:type="MSArtboardGroup" transform="translate(-18.000000, -2807.000000)" fill="#FFFFFF">
            <g id="section-footer" sketch:type="MSLayerGroup" transform="translate(0.000000, 2792.000000)">
                <g id="social-instagram-outline-+-social-facebook" transform="translate(18.000000, 15.000000)" sketch:type="MSShapeGroup">
                    <g id="social-instagram-outline">
                        <path d="M15.9792208,1.99480519 C15.9792208,0.904602597 15.0953974,0.0207792208 14.0051948,0.0207792208 L1.99480519,0.0207792208 C0.904602597,0.0207792208 0.0207792208,0.904602597 0.0207792208,1.99480519 L0.0207792208,14.0051948 C0.0207792208,15.0953974 0.904602597,15.9792208 1.99480519,15.9792208 L14.0051948,15.9792208 C15.0953974,15.9792208 15.9792208,15.0953974 15.9792208,14.0051948 L15.9792208,1.99480519 L15.9792208,1.99480519 Z M8.02077922,4.64760519 C9.85691429,4.64760519 11.3454545,6.13606234 11.3454545,7.97228052 C11.3454545,9.8084987 9.85691429,11.2969558 8.02077922,11.2969558 C6.18464416,11.2969558 4.6961039,9.8084987 4.6961039,7.97228052 C4.6961039,6.13606234 6.18464416,4.64760519 8.02077922,4.64760519 L8.02077922,4.64760519 Z M14.6493506,4.01038961 C14.6493506,4.3776 14.3516675,4.67532468 13.9844156,4.67532468 L11.9896104,4.67532468 C11.6223584,4.67532468 11.3246753,4.3776 11.3246753,4.01038961 L11.3246753,2.01558442 C11.3246753,1.64837403 11.6223584,1.35064935 11.9896104,1.35064935 L13.9844156,1.35064935 C14.3516675,1.35064935 14.6493506,1.64837403 14.6493506,2.01558442 L14.6493506,4.01038961 L14.6493506,4.01038961 Z M14.025974,14.6493506 L2.05714286,14.6493506 C1.69051429,14.6493506 1.35064935,14.3094857 1.35064935,13.9428571 L1.35064935,6.67012987 L3.55623896,6.67012987 C3.43123117,7.08571429 3.36623377,7.52818701 3.36623377,7.98267013 C3.36623377,9.22597403 3.85038961,10.3896104 4.72955844,11.2687377 C5.60872727,12.1478649 6.77751688,12.6294026 8.02077922,12.6294026 C9.26404156,12.6294026 10.4328727,12.1439584 11.312,11.2648312 C12.1911273,10.3857039 12.6753247,9.22663896 12.6753247,7.98333506 C12.6753247,7.52885195 12.6103688,7.08571429 12.4853195,6.67012987 L14.6493506,6.67012987 L14.6493506,13.9428571 C14.6493506,14.3094857 14.3926026,14.6493506 14.025974,14.6493506 L14.025974,14.6493506 Z" id="Shape"></path>
                    </g>
                </g>
            </g>
        </g>
    </g>
</svg>